<svg xmlns="http://www.w3.org/2000/svg" xmlns:xlink="http://www.w3.org/1999/xlink" width="1024" zoomAndPan="magnify" viewBox="0 0 768 767.999994" height="1024" preserveAspectRatio="xMidYMid meet" version="1.0"><defs><clipPath id="id1"><path d="M 5.652344 77 L 760 77 L 760 691.050781 L 5.652344 691.050781 Z M 5.652344 77 " clip-rule="nonzero"/></clipPath></defs><path fill="#0e67ff" d="M 437.253906 230.199219 L 443.328125 284.058594 L 449.398438 337.917969 L 437.253906 230.199219 " fill-opacity="1" fill-rule="nonzero"/><g clip-path="url(#id1)"><path fill="#0e67ff" d="M 289.769531 691.050781 L 293.074219 683.648438 C 309.734375 650.6875 311.058594 627.644531 297.046875 614.519531 C 290.441406 608.917969 280.722656 604.242188 267.886719 600.496094 C 187.804688 582.867188 135.605469 567.558594 111.285156 554.570312 C 69.390625 533.066406 42.21875 510.066406 29.765625 485.5625 C 13.867188 463.609375 5.847656 423.714844 5.699219 365.878906 C 6.582031 316.722656 17.683594 266.726562 39.003906 215.894531 C 53.25 178.457031 89.632812 146.015625 148.148438 118.570312 C 212.636719 90.71875 285.917969 76.867188 368.003906 77.007812 C 554.445312 80.007812 675.425781 126.375 730.953125 216.105469 C 754.882812 258.421875 763.953125 310.558594 758.15625 372.519531 C 752.347656 435.457031 731.203125 488.808594 694.710938 532.578125 C 685.527344 542.589844 675.492188 551.453125 664.605469 559.164062 C 659.867188 564.113281 642.210938 573.664062 611.628906 587.8125 C 605.613281 591.035156 586.261719 597.476562 553.574219 607.132812 C 475.449219 626.125 426.992188 639.230469 408.214844 646.445312 C 385.980469 653.261719 346.5 668.132812 289.769531 691.050781 " fill-opacity="1" fill-rule="nonzero"/></g><path fill="#000000" d="M 504.632812 213.382812 C 503.367188 219.714844 504.210938 226.808594 504.210938 233.3125 C 504.296875 240.152344 504.546875 246.820312 505.136719 253.578125 C 505.726562 260.078125 516.765625 261.007812 518.113281 254.507812 C 519.710938 247.160156 520.46875 240.320312 520.300781 232.890625 C 520.050781 225.628906 519.796875 217.773438 517.015625 211.019531 C 515.921875 208.402344 512.550781 206.964844 509.941406 207.472656 C 506.90625 208.0625 505.222656 210.511719 504.632812 213.382812 Z M 504.632812 213.382812 " fill-opacity="1" fill-rule="nonzero"/><path fill="#000000" d="M 596.207031 211.1875 C 593.679688 216.253906 594.6875 223.769531 594.941406 229.34375 C 595.195312 235.84375 595.953125 241.839844 597.636719 248.089844 C 599.914062 256.617188 610.695312 255.351562 612.378906 247.246094 C 613.8125 240.488281 613.898438 234.324219 613.136719 227.484375 C 612.464844 221.320312 611.875 213.976562 607.914062 208.910156 C 604.378906 204.433594 598.3125 206.882812 596.207031 211.1875 Z M 596.207031 211.1875 " fill-opacity="1" fill-rule="nonzero"/><path fill="#000000" d="M 470.429688 411.058594 C 490.5625 391.890625 513.730469 373.90625 540.773438 366.050781 C 565.121094 359.042969 591.992188 360.054688 614.570312 372.46875 C 620.636719 375.761719 626.363281 379.730469 631.335938 384.542969 C 636.472656 389.441406 640.601562 395.183594 645.234375 400.503906 C 649.699219 405.484375 656.1875 399.996094 654.25 394.421875 C 649.785156 381.589844 637.652344 371.203125 626.449219 364.277344 C 614.488281 356.761719 601.007812 352.035156 587.023438 349.839844 C 557.539062 345.195312 527.632812 354.144531 502.863281 370.019531 C 487.867188 379.644531 475.0625 391.46875 464.027344 405.402344 C 461.164062 409.285156 466.976562 414.351562 470.429688 411.058594 Z M 470.429688 411.058594 " fill-opacity="1" fill-rule="nonzero"/><path fill="#000000" d="M 474.390625 302.804688 C 463.773438 302.550781 453.496094 307.027344 445.914062 314.457031 C 438.585938 321.71875 430.328125 334.808594 435.132812 345.363281 C 437.320312 350.175781 442.628906 353.722656 448.019531 352.710938 C 453.832031 351.613281 458.046875 345.871094 461.5 341.480469 C 469.25 331.851562 474.894531 320.621094 478.179688 308.714844 C 479.949219 302.382812 470.34375 298.921875 468.492188 305.339844 C 466.132812 313.445312 462.679688 321.128906 457.960938 328.136719 C 455.601562 331.601562 453.074219 334.976562 450.210938 338.015625 C 448.1875 340.128906 444.902344 344.097656 444.652344 338.523438 C 444.398438 331.769531 450.210938 324.339844 454.929688 320.117188 C 460.574219 315.132812 467.398438 312.09375 474.726562 310.742188 C 479.191406 309.984375 479.023438 302.890625 474.390625 302.804688 Z M 474.390625 302.804688 " fill-opacity="1" fill-rule="nonzero"/><path fill="#000000" d="M 633.945312 297.738281 C 631.335938 308.546875 633.609375 319.777344 639.675781 329.066406 C 645.152344 337.511719 656.101562 348.066406 667.140625 345.53125 C 672.363281 344.265625 676.660156 339.789062 676.910156 334.300781 C 677.078125 328.476562 672.195312 322.988281 668.738281 318.679688 C 661.15625 309.140625 651.46875 301.285156 640.769531 295.542969 C 635.042969 292.503906 629.230469 300.863281 635.042969 304.074219 C 642.203125 308.042969 648.773438 312.769531 654.417969 318.679688 C 657.28125 321.550781 659.894531 324.675781 662.253906 327.96875 C 663.683594 329.910156 668.402344 334.894531 663.347656 334.808594 C 656.609375 334.640625 649.785156 326.109375 646.835938 320.792969 C 643.214844 314.207031 641.613281 306.859375 641.867188 299.429688 C 641.949219 295.039062 635.125 293.09375 633.945312 297.738281 Z M 633.945312 297.738281 " fill-opacity="1" fill-rule="nonzero"/></svg>