<svg xmlns="http://www.w3.org/2000/svg" xmlns:xlink="http://www.w3.org/1999/xlink" width="800" zoomAndPan="magnify" viewBox="0 0 600 299.999988" height="400" preserveAspectRatio="xMidYMid meet" version="1.0"><defs><clipPath id="e32671bd33"><path d="M 305 9.3125 L 592.886719 9.3125 L 592.886719 244.0625 L 305 244.0625 Z M 305 9.3125 " clip-rule="nonzero"/></clipPath><clipPath id="40aa13ee85"><path d="M 6.742188 79.601562 L 267 79.601562 L 267 290.351562 L 6.742188 290.351562 Z M 6.742188 79.601562 " clip-rule="nonzero"/></clipPath><clipPath id="459b31dbc7"><path d="M 206 110.164062 L 224 110.164062 L 224 135 L 206 135 Z M 206 110.164062 " clip-rule="nonzero"/></clipPath><clipPath id="8b6e6136b0"><path d="M 166 143 L 231.917969 143 L 231.917969 189 L 166 189 Z M 166 143 " clip-rule="nonzero"/></clipPath><clipPath id="16d31e86a6"><path d="M 355 60.519531 L 364 60.519531 L 364 82 L 355 82 Z M 355 60.519531 " clip-rule="nonzero"/></clipPath><clipPath id="1405362b95"><path d="M 410 60.519531 L 419 60.519531 L 419 82 L 410 82 Z M 410 60.519531 " clip-rule="nonzero"/></clipPath><clipPath id="cc62f76c48"><path d="M 322.34375 79 L 469 79 L 469 136 L 322.34375 136 Z M 322.34375 79 " clip-rule="nonzero"/></clipPath><clipPath id="084717ec67"><path d="M 424 104 L 468 104 L 468 149.769531 L 424 149.769531 Z M 424 104 " clip-rule="nonzero"/></clipPath></defs><path fill="#ffd115" d="M 428.6875 67.941406 L 424.054688 109.105469 L 428.6875 67.941406 " fill-opacity="1" fill-rule="nonzero"/><g clip-path="url(#e32671bd33)"><path fill="#ffd115" d="M 484.921875 244.066406 L 483.660156 241.234375 C 477.308594 228.636719 476.804688 219.832031 482.144531 214.816406 C 484.664062 212.675781 488.371094 210.890625 493.265625 209.457031 C 523.800781 202.71875 543.703125 196.867188 552.976562 191.90625 C 568.949219 183.6875 579.3125 174.898438 584.058594 165.53125 C 590.121094 157.144531 593.179688 141.898438 593.234375 119.792969 C 592.898438 101.003906 588.664062 81.898438 580.535156 62.472656 C 575.105469 48.164062 561.230469 35.765625 538.921875 25.277344 C 514.332031 14.632812 486.390625 9.339844 455.089844 9.394531 C 384.003906 10.539062 337.871094 28.261719 316.703125 62.554688 C 307.578125 78.726562 304.121094 98.652344 306.328125 122.328125 C 308.542969 146.382812 316.605469 166.773438 330.519531 183.5 C 334.019531 187.328125 337.847656 190.714844 342 193.660156 C 343.804688 195.550781 350.539062 199.203125 362.199219 204.609375 C 364.492188 205.839844 371.871094 208.300781 384.332031 211.992188 C 414.125 219.25 432.597656 224.261719 439.757812 227.015625 C 448.238281 229.625 463.289062 235.304688 484.921875 244.066406 " fill-opacity="1" fill-rule="nonzero"/></g><path fill="#ff914d" d="M 155.144531 132.234375 L 157.234375 150.710938 L 159.320312 169.191406 L 155.144531 132.234375 " fill-opacity="1" fill-rule="nonzero"/><g clip-path="url(#40aa13ee85)"><path fill="#ff914d" d="M 104.433594 290.351562 L 105.570312 287.8125 C 111.296875 276.5 111.753906 268.59375 106.9375 264.09375 C 104.664062 262.171875 101.324219 260.566406 96.910156 259.28125 C 69.375 253.234375 51.425781 247.980469 43.066406 243.523438 C 28.660156 236.148438 19.316406 228.253906 15.035156 219.847656 C 9.570312 212.316406 6.808594 198.628906 6.761719 178.785156 C 7.0625 161.917969 10.882812 144.765625 18.210938 127.324219 C 23.109375 114.480469 35.621094 103.347656 55.738281 93.933594 C 77.914062 84.375 103.109375 79.625 131.332031 79.671875 C 195.441406 80.699219 237.039062 96.609375 256.128906 127.398438 C 264.359375 141.914062 267.476562 159.804688 265.484375 181.0625 C 263.488281 202.65625 256.214844 220.960938 243.667969 235.976562 C 240.511719 239.414062 237.0625 242.453125 233.316406 245.101562 C 231.6875 246.796875 225.617188 250.074219 215.101562 254.929688 C 213.03125 256.035156 206.378906 258.246094 195.140625 261.558594 C 168.277344 268.074219 151.617188 272.570312 145.160156 275.046875 C 137.515625 277.386719 123.941406 282.488281 104.433594 290.351562 " fill-opacity="1" fill-rule="nonzero"/></g><path fill="#000000" d="M 171.042969 117.234375 C 171.417969 118.597656 172.695312 119.265625 173.800781 120.046875 C 175.132812 120.972656 176.46875 121.871094 177.773438 122.886719 C 180.300781 124.800781 182.679688 126.914062 184.886719 129.175781 C 185.089844 128.164062 185.292969 127.148438 185.496094 126.105469 C 183.203125 127.4375 180.9375 128.800781 178.675781 130.160156 C 176.46875 131.496094 174.03125 132.683594 172.058594 134.335938 C 170.492188 135.699219 172.230469 137.871094 173.972656 137.203125 C 176.324219 136.304688 178.472656 134.769531 180.648438 133.496094 C 182.855469 132.21875 185.058594 130.945312 187.238281 129.640625 C 188.253906 129.03125 188.804688 127.554688 187.847656 126.566406 C 185.496094 124.21875 182.96875 122.046875 180.269531 120.105469 C 178.964844 119.148438 177.601562 118.222656 176.207031 117.410156 C 175.019531 116.714844 173.335938 115.554688 171.914062 115.960938 C 171.363281 116.105469 170.867188 116.628906 171.042969 117.234375 Z M 171.042969 117.234375 " fill-opacity="1" fill-rule="nonzero"/><g clip-path="url(#459b31dbc7)"><path fill="#000000" d="M 216.867188 110.859375 C 214.460938 112.800781 212.574219 115.726562 210.890625 118.308594 C 209.121094 121.03125 207.582031 123.871094 206.1875 126.769531 C 205.753906 127.667969 206.449219 129.0625 207.40625 129.292969 C 209.933594 129.929688 212.398438 130.710938 214.835938 131.640625 C 217.101562 132.507812 219.507812 134.191406 221.976562 134.394531 C 223.398438 134.507812 224.09375 132.855469 223.28125 131.8125 C 221.742188 129.84375 218.667969 128.886719 216.402344 127.988281 C 213.90625 126.972656 211.355469 126.191406 208.742188 125.554688 C 209.148438 126.394531 209.554688 127.234375 209.960938 128.074219 C 211.265625 125.292969 212.6875 122.539062 214.257812 119.902344 C 215.765625 117.351562 217.621094 114.859375 218.839844 112.164062 C 219.363281 110.976562 217.769531 110.164062 216.867188 110.859375 Z M 216.867188 110.859375 " fill-opacity="1" fill-rule="nonzero"/></g><g clip-path="url(#8b6e6136b0)"><path fill="#000000" d="M 169.445312 157.347656 C 174.089844 159.261719 179.71875 159.171875 184.710938 159.085938 C 189.992188 159 195.304688 158.566406 200.5 157.609375 C 210.773438 155.726562 220.988281 152.246094 230.074219 147.089844 C 229.117188 146.246094 228.1875 145.40625 227.230469 144.566406 C 222.644531 156.679688 218.433594 170.011719 208.015625 178.535156 C 203.808594 181.984375 198.234375 184.765625 192.664062 184.5625 C 187.960938 184.390625 183.578125 181.75 180.242188 178.5625 C 175.511719 174.042969 172.289062 168.304688 170.085938 162.160156 C 169.328125 160.101562 166.050781 161.289062 166.484375 163.375 C 168.867188 174.765625 178.125 186.679688 190.167969 188.679688 C 196.175781 189.664062 202.558594 187.34375 207.492188 184.097656 C 213.210938 180.332031 217.710938 175 221.078125 169.085938 C 225.253906 161.753906 227.925781 153.695312 231.117188 145.898438 C 231.785156 144.246094 229.8125 142.566406 228.273438 143.378906 C 219.277344 148.21875 209.816406 151.8125 199.773438 153.695312 C 194.8125 154.625 189.820312 155.261719 184.769531 155.433594 C 179.75 155.609375 174.582031 154.855469 169.621094 155.464844 C 168.574219 155.636719 168.632812 157.027344 169.445312 157.347656 Z M 169.445312 157.347656 " fill-opacity="1" fill-rule="nonzero"/></g><g clip-path="url(#16d31e86a6)"><path fill="#000000" d="M 357.210938 61.28125 C 355.105469 63.574219 355.4375 66.296875 355.4375 69.210938 C 355.390625 72.359375 355.679688 75.417969 356.0625 78.519531 C 356.589844 82.53125 363.152344 82.199219 363.246094 78.089844 C 363.296875 74.941406 363.199219 71.882812 362.816406 68.78125 C 362.433594 65.867188 362.433594 63.144531 360.085938 61.089844 C 359.367188 60.519531 357.835938 60.613281 357.210938 61.28125 Z M 357.210938 61.28125 " fill-opacity="1" fill-rule="nonzero"/></g><g clip-path="url(#1405362b95)"><path fill="#000000" d="M 412.011719 61.28125 C 409.953125 63.574219 410.238281 66.296875 410.238281 69.210938 C 410.191406 72.359375 410.480469 75.417969 410.863281 78.519531 C 411.390625 82.53125 417.953125 82.199219 418.046875 78.089844 C 418.09375 74.941406 418 71.882812 417.617188 68.78125 C 417.234375 65.867188 417.234375 63.144531 414.886719 61.089844 C 414.167969 60.519531 412.632812 60.613281 412.011719 61.28125 Z M 412.011719 61.28125 " fill-opacity="1" fill-rule="nonzero"/></g><g clip-path="url(#cc62f76c48)"><path fill="#000000" d="M 322.578125 108.367188 C 323.582031 113.667969 328.566406 117.628906 332.734375 120.542969 C 337.332031 123.789062 342.503906 126.226562 347.726562 128.328125 C 359.511719 132.960938 372.492188 135.394531 385.136719 135.632812 C 408.609375 136.109375 432.226562 128.328125 449.328125 112.042969 C 453.734375 107.839844 457.757812 103.210938 461.160156 98.195312 C 464.417969 93.46875 468.105469 87.785156 468.679688 82.007812 C 468.96875 79.378906 465.710938 78.761719 464.226562 80.480469 C 461.015625 84.300781 459.003906 89.074219 456.082031 93.085938 C 453.304688 96.953125 450.191406 100.441406 446.691406 103.6875 C 439.410156 110.417969 430.933594 115.71875 421.878906 119.683594 C 401.042969 128.851562 376.46875 129.042969 354.816406 122.644531 C 349.117188 120.972656 343.511719 119.015625 338.242188 116.292969 C 333.210938 113.667969 328.996094 109.464844 323.824219 107.171875 C 323.25 106.839844 322.433594 107.601562 322.578125 108.367188 Z M 322.578125 108.367188 " fill-opacity="1" fill-rule="nonzero"/></g><g clip-path="url(#084717ec67)"><path fill="#000000" d="M 425.183594 121.785156 C 423.988281 124.460938 425.953125 128.519531 426.957031 131.097656 C 428.203125 134.34375 429.878906 137.351562 432.035156 140.121094 C 435.964844 145.183594 442.09375 148.910156 448.609375 149.195312 C 462.023438 149.769531 469.253906 135.488281 466.574219 123.742188 C 465.710938 120.019531 464.128906 116.484375 462.070312 113.238281 C 460.058594 110.085938 457.421875 106.503906 453.878906 104.976562 C 451.578125 103.972656 450.09375 106.648438 450.765625 108.511719 C 451.820312 111.566406 454.5 114.289062 456.179688 117.058594 C 457.949219 119.875 459.292969 122.929688 459.867188 126.226562 C 460.730469 131.289062 459.101562 137.496094 454.550781 140.359375 C 449.519531 143.609375 443.003906 141.125 438.886719 137.589844 C 436.296875 135.394531 434.382812 132.480469 432.753906 129.519531 C 431.890625 127.992188 431.222656 126.417969 430.40625 124.839844 C 429.6875 123.503906 428.921875 121.691406 427.53125 120.972656 C 426.621094 120.496094 425.617188 120.78125 425.183594 121.785156 Z M 425.183594 121.785156 " fill-opacity="1" fill-rule="nonzero"/></g></svg>