<svg xmlns="http://www.w3.org/2000/svg" xmlns:xlink="http://www.w3.org/1999/xlink" width="1080" zoomAndPan="magnify" viewBox="0 0 810 809.999993" height="1080" preserveAspectRatio="xMidYMid meet" version="1.0"><path fill="#bfbdbc" d="M 809.996094 405.003906 C 809.996094 628.675781 628.675781 809.996094 405.003906 809.996094 C 181.335938 809.996094 0.015625 628.675781 0.015625 405.003906 C 0.015625 181.332031 181.335938 0.015625 405.003906 0.015625 C 628.675781 0.015625 809.996094 181.332031 809.996094 405.003906 " fill-opacity="1" fill-rule="nonzero"/><path fill="#ffffff" d="M 548.867188 276.980469 C 548.867188 356.714844 484.222656 421.355469 404.488281 421.355469 C 324.75 421.355469 260.105469 356.714844 260.105469 276.980469 C 260.105469 197.238281 324.75 132.597656 404.488281 132.597656 C 484.222656 132.597656 548.867188 197.238281 548.867188 276.980469 " fill-opacity="1" fill-rule="nonzero"/><path fill="#ffffff" d="M 404.484375 790.769531 C 506.652344 790.769531 599.96875 752.921875 671.21875 690.5 C 649.101562 546.078125 583.976562 445.855469 404.484375 445.855469 C 230.035156 445.855469 162.511719 546.503906 138.789062 691.425781 C 209.90625 753.296875 302.816406 790.769531 404.484375 790.769531 " fill-opacity="1" fill-rule="nonzero"/><path fill="#000000" d="M 365.667969 227.050781 C 364.902344 231.160156 365.394531 235.761719 365.449219 239.980469 C 365.503906 244.417969 365.667969 248.746094 366.054688 253.128906 C 366.4375 257.347656 373.625 257.949219 374.5 253.730469 C 375.542969 248.964844 376.035156 244.527344 375.925781 239.707031 C 375.761719 234.992188 375.597656 229.898438 373.789062 225.515625 C 373.074219 223.816406 370.878906 222.886719 369.179688 223.214844 C 367.152344 223.597656 366.054688 225.1875 365.667969 227.050781 Z M 365.667969 227.050781 " fill-opacity="1" fill-rule="nonzero"/><path fill="#000000" d="M 425.296875 225.625 C 423.652344 228.914062 424.308594 233.789062 424.472656 237.40625 C 424.636719 241.621094 425.132812 245.511719 426.230469 249.566406 C 427.710938 255.101562 434.730469 254.277344 435.828125 249.019531 C 436.761719 244.636719 436.816406 240.636719 436.320312 236.199219 C 435.882812 232.199219 435.5 227.433594 432.921875 224.148438 C 430.617188 221.242188 426.667969 222.832031 425.296875 225.625 Z M 425.296875 225.625 " fill-opacity="1" fill-rule="nonzero"/><path fill="#000000" d="M 324.308594 295.148438 C 324.144531 303.417969 328.3125 311.199219 332.921875 317.828125 C 337.472656 324.347656 343.289062 330.042969 349.816406 334.59375 C 362.269531 343.246094 377.519531 348.179688 392.65625 348.835938 C 408.015625 349.492188 423.761719 346.316406 437.253906 338.863281 C 450.695312 331.46875 462.046875 320.566406 470.332031 307.636719 C 474.882812 300.515625 478.558594 292.738281 481.136719 284.683594 C 482.507812 280.519531 483.605469 276.191406 484.320312 271.863281 C 484.976562 267.589844 485.855469 262.714844 484.484375 258.550781 C 483.167969 254.605469 478.339844 254.058594 476.476562 257.949219 C 474.992188 261.070312 474.828125 264.523438 474.117188 267.917969 C 473.402344 271.261719 472.636719 274.601562 471.648438 277.890625 C 469.78125 284.191406 467.257812 290.324219 464.023438 296.023438 C 457.496094 307.582031 448.5 317.9375 437.308594 325.277344 C 415.148438 339.742188 385.199219 341.714844 361.5 329.550781 C 354.589844 325.992188 348.171875 321.222656 342.90625 315.582031 C 336.925781 309.171875 333.523438 301.722656 329.410156 294.105469 C 328.203125 291.96875 324.363281 292.351562 324.308594 295.148438 Z M 324.308594 295.148438 " fill-opacity="1" fill-rule="nonzero"/></svg>