<svg xmlns="http://www.w3.org/2000/svg" xmlns:xlink="http://www.w3.org/1999/xlink" width="1015" zoomAndPan="magnify" viewBox="0 0 761.25 614.249986" height="819" preserveAspectRatio="xMidYMid meet" version="1.0"><defs><clipPath id="a394253b1d"><path d="M 474.117188 11.457031 L 758 11.457031 L 758 242.71875 L 474.117188 242.71875 Z M 474.117188 11.457031 " clip-rule="nonzero"/></clipPath><clipPath id="48b10eeb22"><path d="M 611.476562 85 L 710.976562 85 L 710.976562 143.523438 L 611.476562 143.523438 Z M 611.476562 85 " clip-rule="nonzero"/></clipPath><clipPath id="322fba3d77"><path d="M 144.613281 118.835938 L 393 118.835938 L 393 319.957031 L 144.613281 319.957031 Z M 144.613281 118.835938 " clip-rule="nonzero"/></clipPath><clipPath id="c058ccc9b8"><path d="M 269.742188 167 L 297 167 L 297 183 L 269.742188 183 Z M 269.742188 167 " clip-rule="nonzero"/></clipPath><clipPath id="252e27e0f4"><path d="M 311 200 L 336 200 L 336 230.757812 L 311 230.757812 Z M 311 200 " clip-rule="nonzero"/></clipPath><clipPath id="fe55122c72"><path d="M 538.925781 308.785156 L 731 308.785156 L 731 464.382812 L 538.925781 464.382812 Z M 538.925781 308.785156 " clip-rule="nonzero"/></clipPath><clipPath id="1f01188b2f"><path d="M 658 380 L 699.875 380 L 699.875 395.464844 L 658 395.464844 Z M 658 380 " clip-rule="nonzero"/></clipPath><clipPath id="f65e78a14c"><path d="M 269.742188 367.289062 L 509 367.289062 L 509 561.765625 L 269.742188 561.765625 Z M 269.742188 367.289062 " clip-rule="nonzero"/></clipPath><clipPath id="e96dfa33d6"><path d="M 0.0898438 386.640625 L 214 386.640625 L 214 560.785156 L 0.0898438 560.785156 Z M 0.0898438 386.640625 " clip-rule="nonzero"/></clipPath><clipPath id="51175a7f58"><path d="M 177 448 L 190.441406 448 L 190.441406 463 L 177 463 Z M 177 448 " clip-rule="nonzero"/></clipPath></defs><path fill="#ffd115" d="M 636.492188 69.210938 L 638.777344 89.488281 L 641.058594 109.765625 L 636.492188 69.210938 " fill-opacity="1" fill-rule="nonzero"/><g clip-path="url(#a394253b1d)"><path fill="#ffd115" d="M 581.007812 242.71875 L 582.25 239.929688 C 588.515625 227.519531 589.015625 218.84375 583.742188 213.90625 C 581.257812 211.796875 577.601562 210.035156 572.773438 208.625 C 542.644531 201.988281 523.007812 196.222656 513.859375 191.335938 C 498.097656 183.238281 487.875 174.578125 483.191406 165.351562 C 477.207031 157.089844 474.191406 142.066406 474.136719 120.292969 C 474.46875 101.785156 478.644531 82.960938 486.664062 63.824219 C 492.023438 49.726562 505.710938 37.515625 527.726562 27.179688 C 551.988281 16.695312 579.558594 11.480469 610.4375 11.535156 C 680.578125 12.664062 726.09375 30.121094 746.984375 63.902344 C 755.988281 79.835938 759.398438 99.464844 757.21875 122.792969 C 755.035156 146.488281 747.078125 166.574219 733.347656 183.054688 C 729.894531 186.824219 726.121094 190.160156 722.023438 193.0625 C 720.242188 194.925781 713.597656 198.523438 702.09375 203.851562 C 699.828125 205.0625 692.550781 207.488281 680.253906 211.121094 C 650.859375 218.273438 632.632812 223.207031 625.566406 225.925781 C 617.203125 228.492188 602.347656 234.089844 581.007812 242.71875 " fill-opacity="1" fill-rule="nonzero"/></g><path fill="#000000" d="M 637.070312 67.785156 C 636.597656 70.328125 636.902344 73.171875 636.933594 75.78125 C 636.96875 78.527344 637.070312 81.203125 637.304688 83.914062 C 637.539062 86.523438 641.953125 86.898438 642.492188 84.289062 C 643.132812 81.339844 643.4375 78.59375 643.371094 75.613281 C 643.269531 72.699219 643.167969 69.546875 642.054688 66.835938 C 641.617188 65.785156 640.269531 65.210938 639.226562 65.414062 C 637.980469 65.652344 637.304688 66.632812 637.070312 67.785156 Z M 637.070312 67.785156 " fill-opacity="1" fill-rule="nonzero"/><path fill="#000000" d="M 673.691406 66.90625 C 672.683594 68.9375 673.085938 71.953125 673.1875 74.191406 C 673.289062 76.800781 673.589844 79.207031 674.265625 81.714844 C 675.175781 85.136719 679.488281 84.628906 680.160156 81.375 C 680.734375 78.664062 680.769531 76.191406 680.464844 73.445312 C 680.195312 70.972656 679.960938 68.023438 678.375 65.988281 C 676.960938 64.195312 674.535156 65.175781 673.691406 66.90625 Z M 673.691406 66.90625 " fill-opacity="1" fill-rule="nonzero"/><g clip-path="url(#48b10eeb22)"><path fill="#000000" d="M 611.664062 109.90625 C 611.5625 115.023438 614.125 119.835938 616.953125 123.9375 C 619.75 127.96875 623.324219 131.492188 627.332031 134.304688 C 634.980469 139.660156 644.347656 142.710938 653.644531 143.117188 C 663.078125 143.523438 672.75 141.558594 681.039062 136.949219 C 689.292969 132.375 696.265625 125.628906 701.355469 117.632812 C 704.152344 113.226562 706.40625 108.414062 707.992188 103.433594 C 708.832031 100.859375 709.507812 98.183594 709.945312 95.503906 C 710.351562 92.863281 710.890625 89.847656 710.046875 87.269531 C 709.238281 84.832031 706.273438 84.492188 705.128906 86.898438 C 704.21875 88.828125 704.117188 90.964844 703.679688 93.066406 C 703.242188 95.132812 702.769531 97.199219 702.164062 99.234375 C 701.015625 103.128906 699.46875 106.925781 697.480469 110.449219 C 693.46875 117.597656 687.945312 124.003906 681.070312 128.542969 C 667.460938 137.492188 649.0625 138.710938 634.507812 131.1875 C 630.261719 128.984375 626.320312 126.035156 623.085938 122.546875 C 619.414062 118.582031 617.324219 113.972656 614.796875 109.261719 C 614.058594 107.941406 611.699219 108.179688 611.664062 109.90625 Z M 611.664062 109.90625 " fill-opacity="1" fill-rule="nonzero"/></g><path fill="#ffabf9" d="M 286.210938 169.0625 L 288.203125 186.699219 L 290.195312 204.332031 L 286.210938 169.0625 " fill-opacity="1" fill-rule="nonzero"/><g clip-path="url(#322fba3d77)"><path fill="#ffabf9" d="M 237.824219 319.957031 L 238.90625 317.535156 C 244.375 306.742188 244.808594 299.199219 240.210938 294.902344 C 238.042969 293.066406 234.855469 291.535156 230.644531 290.308594 C 204.367188 284.535156 187.242188 279.523438 179.261719 275.273438 C 165.515625 268.230469 156.601562 260.699219 152.515625 252.675781 C 147.300781 245.488281 144.667969 232.425781 144.621094 213.488281 C 144.910156 197.390625 148.550781 181.023438 155.546875 164.378906 C 160.222656 152.121094 172.160156 141.5 191.359375 132.511719 C 212.515625 123.394531 236.558594 118.855469 263.492188 118.902344 C 324.664062 119.886719 364.355469 135.066406 382.574219 164.449219 C 390.425781 178.304688 393.402344 195.375 391.5 215.664062 C 389.59375 236.269531 382.65625 253.738281 370.683594 268.070312 C 367.671875 271.347656 364.378906 274.25 360.804688 276.773438 C 359.25 278.394531 353.457031 281.523438 343.425781 286.15625 C 341.449219 287.210938 335.101562 289.320312 324.378906 292.480469 C 298.742188 298.699219 282.847656 302.992188 276.683594 305.355469 C 269.390625 307.585938 256.4375 312.453125 237.824219 319.957031 " fill-opacity="1" fill-rule="nonzero"/></g><g clip-path="url(#c058ccc9b8)"><path fill="#000000" d="M 269.78125 171.445312 C 269.859375 178.6875 278.09375 183.75 284.769531 182.8125 C 288.246094 182.308594 291.367188 180.242188 293.476562 177.519531 C 295.152344 175.296875 297.691406 170.277344 295.425781 167.785156 C 294.566406 166.847656 293.359375 167.082031 292.617188 167.976562 C 291.757812 168.953125 291.953125 170.277344 291.601562 171.445312 C 291.25 172.652344 290.664062 173.78125 289.882812 174.753906 C 288.476562 176.542969 286.449219 177.945312 284.183594 178.335938 C 281.84375 178.726562 279.539062 178.023438 277.625 176.738281 C 275.363281 175.222656 274.386719 173.195312 273.253906 170.78125 C 272.511719 169.183594 269.742188 169.613281 269.78125 171.445312 Z M 269.78125 171.445312 " fill-opacity="1" fill-rule="nonzero"/></g><path fill="#000000" d="M 326.265625 166.652344 C 325.132812 170.003906 328.019531 173.46875 330.558594 175.335938 C 333.71875 177.714844 337.9375 179.191406 341.917969 178.882812 C 348.867188 178.296875 354.214844 170.625 349.84375 164.394531 C 348.359375 162.292969 344.609375 164.746094 346.054688 166.925781 C 347.070312 168.484375 346.914062 170.199219 345.820312 171.714844 C 344.535156 173.507812 342.464844 174.015625 340.355469 173.898438 C 337.898438 173.742188 335.515625 172.84375 333.523438 171.484375 C 332.589844 170.859375 331.652344 170.160156 330.988281 169.261719 C 330.324219 168.40625 330.050781 167.355469 329.503906 166.421875 C 328.722656 165.253906 326.773438 165.136719 326.265625 166.652344 Z M 326.265625 166.652344 " fill-opacity="1" fill-rule="nonzero"/><g clip-path="url(#252e27e0f4)"><path fill="#000000" d="M 313.5 210.226562 C 316.894531 208.28125 319.863281 206.0625 323.804688 205.320312 C 323.960938 205.28125 324.9375 205.242188 325.015625 205.125 C 324.664062 204.152344 324.46875 203.917969 324.429688 204.425781 C 324.429688 204.582031 324.390625 204.738281 324.3125 204.890625 C 323.882812 205.710938 323.6875 206.605469 323.21875 207.421875 C 322.242188 209.214844 320.957031 210.773438 319.394531 212.136719 C 320.488281 213.109375 321.582031 214.042969 322.671875 215.015625 C 323.570312 213.382812 325.5625 212.71875 327.359375 213.109375 C 329.542969 213.574219 330.714844 215.484375 330.832031 217.625 C 331.105469 223.425781 324.429688 225.335938 319.824219 224.710938 C 316.273438 224.246094 315.804688 229.929688 319.394531 230.28125 C 323.765625 230.710938 328.410156 229.65625 331.652344 226.542969 C 334.5 223.816406 335.90625 219.613281 335.164062 215.757812 C 334.460938 212.019531 331.652344 209.175781 327.902344 208.554688 C 324.390625 207.96875 320.761719 209.410156 319.082031 212.601562 C 317.988281 214.707031 320.371094 217.273438 322.359375 215.484375 C 324.976562 213.148438 332.746094 203.761719 326.96875 200.960938 C 324.507812 199.753906 320.878906 201.269531 318.574219 202.246094 C 315.804688 203.414062 312.992188 205.242188 311.390625 207.851562 C 310.613281 209.175781 312.015625 211.082031 313.5 210.226562 Z M 313.5 210.226562 " fill-opacity="1" fill-rule="nonzero"/></g><path fill="#000000" d="M 351.363281 207.65625 C 350.269531 205.90625 348.671875 204.425781 347.421875 202.828125 C 345.976562 201.039062 344.6875 198.972656 343.792969 196.871094 C 343.558594 196.285156 342.972656 195.003906 343.285156 194.339844 C 343.792969 193.25 345.078125 194.378906 345.546875 195.003906 C 346.835938 196.675781 347.226562 198.816406 348.671875 200.453125 C 349.6875 201.582031 351.441406 200.882812 351.636719 199.480469 C 351.910156 197.570312 352.964844 195.898438 354.527344 194.808594 C 355.152344 194.378906 356.359375 193.601562 357.179688 193.910156 C 358.546875 194.378906 358.117188 196.597656 357.84375 197.570312 C 356.710938 201.542969 353.589844 204.152344 350.386719 206.449219 C 348.90625 207.5 350.582031 209.914062 352.183594 209.097656 C 355.113281 207.578125 357.648438 205.085938 359.40625 202.324219 C 361.085938 199.597656 362.566406 195.664062 360.734375 192.664062 C 358.976562 189.824219 355.660156 190.132812 353.121094 191.691406 C 350.425781 193.367188 348.75 196.09375 348.320312 199.207031 C 349.296875 198.894531 350.308594 198.546875 351.285156 198.234375 C 349.179688 195.859375 349.140625 192.433594 346.015625 190.875 C 343.402344 189.589844 340.277344 190.796875 339.808594 193.832031 C 339.339844 196.832031 341.253906 199.910156 342.894531 202.207031 C 344.6875 204.699219 347.304688 207.96875 350.464844 208.824219 C 350.972656 208.941406 351.753906 208.320312 351.363281 207.65625 Z M 351.363281 207.65625 " fill-opacity="1" fill-rule="nonzero"/><path fill="#ff1616" d="M 648.335938 347.644531 L 649.878906 361.285156 L 651.417969 374.929688 L 648.335938 347.644531 " fill-opacity="1" fill-rule="nonzero"/><g clip-path="url(#fe55122c72)"><path fill="#ff1616" d="M 610.949219 464.382812 L 611.789062 462.507812 C 616.011719 454.15625 616.347656 448.320312 612.792969 444.996094 C 611.121094 443.574219 608.65625 442.390625 605.402344 441.441406 C 585.101562 436.976562 571.867188 433.097656 565.703125 429.808594 C 555.082031 424.363281 548.195312 418.535156 545.039062 412.328125 C 541.007812 406.769531 538.972656 396.664062 538.9375 382.011719 C 539.160156 369.558594 541.976562 356.894531 547.378906 344.019531 C 550.992188 334.535156 560.214844 326.320312 575.046875 319.367188 C 591.394531 312.3125 609.972656 308.804688 630.78125 308.839844 C 678.046875 309.597656 708.714844 321.34375 722.792969 344.074219 C 728.859375 354.792969 731.15625 368 729.6875 383.695312 C 728.214844 399.636719 722.855469 413.152344 713.605469 424.238281 C 711.277344 426.773438 708.730469 429.019531 705.972656 430.972656 C 704.769531 432.226562 700.292969 434.644531 692.542969 438.230469 C 691.015625 439.046875 686.113281 440.679688 677.824219 443.125 C 658.019531 447.933594 645.738281 451.253906 640.976562 453.082031 C 635.339844 454.808594 625.332031 458.574219 610.949219 464.382812 " fill-opacity="1" fill-rule="nonzero"/></g><path fill="#000000" d="M 664.074219 357.710938 C 663.742188 359.367188 663.964844 361.222656 663.964844 362.925781 C 663.984375 364.714844 664.050781 366.460938 664.207031 368.226562 C 664.359375 369.925781 667.242188 370.171875 667.59375 368.46875 C 668.011719 366.546875 668.207031 364.757812 668.164062 362.8125 C 668.097656 360.914062 668.03125 358.859375 667.308594 357.09375 C 667.019531 356.40625 666.140625 356.03125 665.460938 356.164062 C 664.667969 356.320312 664.226562 356.960938 664.074219 357.710938 Z M 664.074219 357.710938 " fill-opacity="1" fill-rule="nonzero"/><path fill="#000000" d="M 687.980469 357.136719 C 687.324219 358.460938 687.585938 360.429688 687.652344 361.886719 C 687.71875 363.585938 687.917969 365.15625 688.355469 366.789062 C 688.949219 369.023438 691.765625 368.691406 692.207031 366.570312 C 692.578125 364.800781 692.601562 363.191406 692.402344 361.398438 C 692.226562 359.789062 692.074219 357.867188 691.039062 356.539062 C 690.117188 355.371094 688.53125 356.011719 687.980469 357.136719 Z M 687.980469 357.136719 " fill-opacity="1" fill-rule="nonzero"/><path fill="#000000" d="M 664.292969 357.710938 C 663.964844 359.367188 664.183594 361.222656 664.183594 362.925781 C 664.207031 364.714844 664.269531 366.460938 664.425781 368.226562 C 664.578125 369.925781 667.460938 370.171875 667.8125 368.46875 C 668.230469 366.546875 668.429688 364.757812 668.382812 362.8125 C 668.320312 360.914062 668.253906 358.859375 667.527344 357.09375 C 667.242188 356.40625 666.359375 356.03125 665.679688 356.164062 C 664.886719 356.320312 664.449219 356.960938 664.292969 357.710938 Z M 664.292969 357.710938 " fill-opacity="1" fill-rule="nonzero"/><path fill="#000000" d="M 688.203125 357.136719 C 687.542969 358.460938 687.804688 360.429688 687.871094 361.886719 C 687.9375 363.585938 688.136719 365.15625 688.578125 366.789062 C 689.171875 369.023438 691.984375 368.691406 692.425781 366.570312 C 692.800781 364.800781 692.820312 363.191406 692.625 361.398438 C 692.449219 359.789062 692.292969 357.867188 691.257812 356.539062 C 690.335938 355.371094 688.753906 356.011719 688.203125 357.136719 Z M 688.203125 357.136719 " fill-opacity="1" fill-rule="nonzero"/><path fill="#000000" d="M 683.539062 353.800781 C 684.660156 354.265625 685.78125 353.269531 686.683594 352.695312 C 687.894531 351.902344 689.058594 351.0625 690.226562 350.199219 C 692.511719 348.476562 694.714844 346.644531 696.738281 344.632812 C 697.617188 343.75 696.605469 341.914062 695.4375 342.6875 C 693.042969 344.300781 690.730469 346.046875 688.445312 347.835938 C 687.34375 348.699219 686.265625 349.558594 685.210938 350.464844 C 684.308594 351.238281 683.035156 352.011719 683.144531 353.335938 C 683.164062 353.558594 683.363281 353.734375 683.539062 353.800781 Z M 683.539062 353.800781 " fill-opacity="1" fill-rule="nonzero"/><path fill="#000000" d="M 657.519531 345.957031 C 658.222656 346.597656 659.101562 346.910156 659.960938 347.304688 C 660.992188 347.792969 662.027344 348.300781 663.0625 348.785156 C 665.085938 349.78125 667.042969 350.863281 668.976562 352.011719 C 670.386719 352.828125 671.816406 350.707031 670.40625 349.890625 C 668.449219 348.765625 666.449219 347.769531 664.382812 346.863281 C 663.390625 346.445312 662.402344 346.046875 661.390625 345.695312 C 660.355469 345.339844 659.210938 344.765625 658.113281 344.832031 C 657.5625 344.832031 657.011719 345.496094 657.519531 345.957031 Z M 657.519531 345.957031 " fill-opacity="1" fill-rule="nonzero"/><g clip-path="url(#1f01188b2f)"><path fill="#000000" d="M 659.628906 395 C 662.601562 392.660156 665.347656 390.03125 668.558594 388 C 671.660156 386.03125 675.070312 384.441406 678.679688 383.710938 C 685.058594 382.453125 692.140625 383.800781 696.824219 388.574219 C 697.96875 389.742188 699.792969 388.175781 698.761719 386.871094 C 695.085938 382.277344 689.234375 380.222656 683.496094 380.242188 C 677.25 380.289062 671.484375 382.871094 666.492188 386.496094 C 663.546875 388.640625 660.773438 391.113281 658.574219 394.050781 C 658.070312 394.734375 659.015625 395.464844 659.628906 395 Z M 659.628906 395 " fill-opacity="1" fill-rule="nonzero"/></g><path fill="#85e65c" d="M 406.347656 415.855469 L 408.269531 432.90625 L 410.191406 449.960938 L 406.347656 415.855469 " fill-opacity="1" fill-rule="nonzero"/><g clip-path="url(#f65e78a14c)"><path fill="#85e65c" d="M 359.667969 561.765625 L 360.710938 559.421875 C 365.984375 548.984375 366.40625 541.6875 361.96875 537.535156 C 359.878906 535.761719 356.804688 534.28125 352.738281 533.09375 C 327.394531 527.511719 310.871094 522.664062 303.175781 518.554688 C 289.914062 511.746094 281.316406 504.464844 277.375 496.703125 C 272.34375 489.753906 269.804688 477.125 269.757812 458.8125 C 270.035156 443.25 273.550781 427.417969 280.296875 411.324219 C 284.808594 399.472656 296.320312 389.203125 314.84375 380.511719 C 335.253906 371.695312 358.449219 367.308594 384.429688 367.351562 C 443.4375 368.304688 481.730469 382.984375 499.304688 411.394531 C 506.878906 424.789062 509.75 441.296875 507.914062 460.914062 C 506.078125 480.839844 499.382812 497.734375 487.832031 511.589844 C 484.925781 514.761719 481.75 517.566406 478.304688 520.007812 C 476.804688 521.574219 471.214844 524.597656 461.539062 529.078125 C 459.632812 530.097656 453.507812 532.136719 443.164062 535.195312 C 418.433594 541.207031 403.097656 545.355469 397.15625 547.640625 C 390.117188 549.800781 377.621094 554.507812 359.667969 561.765625 " fill-opacity="1" fill-rule="nonzero"/></g><path fill="#000000" d="M 422.355469 410.394531 C 419.1875 415.203125 416.097656 420.066406 413.0625 424.953125 C 410.023438 429.84375 406.804688 434.730469 404.394531 439.984375 C 403.375 442.230469 406.75 443.644531 408.113281 441.839844 C 411.515625 437.316406 414.214844 432.21875 417.042969 427.332031 C 419.871094 422.390625 422.644531 417.425781 425.34375 412.40625 C 426.414062 410.394531 423.640625 408.40625 422.355469 410.394531 Z M 422.355469 410.394531 " fill-opacity="1" fill-rule="nonzero"/><path fill="#000000" d="M 405.023438 412.695312 C 407.589844 416.773438 410.3125 420.773438 413.140625 424.691406 C 415.96875 428.640625 418.769531 432.664062 422.175781 436.140625 C 424.03125 438.050781 426.835938 435.539062 425.265625 433.421875 C 422.410156 429.605469 419.136719 426.105469 416.097656 422.417969 C 413.0625 418.757812 410.128906 414.996094 407.222656 411.230469 C 406.304688 410.054688 404.210938 411.414062 405.023438 412.695312 Z M 405.023438 412.695312 " fill-opacity="1" fill-rule="nonzero"/><path fill="#000000" d="M 462.761719 407.046875 C 459.617188 410.5 457 414.5 454.539062 418.445312 C 452.078125 422.390625 449.535156 426.496094 447.808594 430.835938 C 447.101562 432.585938 449.796875 433.945312 450.765625 432.324219 C 453.097656 428.429688 455.113281 424.328125 457.496094 420.457031 C 459.90625 416.589844 462.601562 412.902344 465.011719 409.035156 C 465.851562 407.648438 463.964844 405.742188 462.761719 407.046875 Z M 462.761719 407.046875 " fill-opacity="1" fill-rule="nonzero"/><path fill="#000000" d="M 448.121094 408.984375 C 448.933594 410.863281 450.792969 412.589844 452.128906 414.132812 C 453.648438 415.882812 455.167969 417.660156 456.683594 419.414062 C 459.671875 422.808594 462.679688 426.183594 466.136719 429.136719 C 467.472656 430.285156 468.859375 428.222656 467.996094 427.019531 C 465.429688 423.332031 462.367188 420.039062 459.304688 416.773438 C 457.757812 415.152344 456.214844 413.53125 454.667969 411.910156 C 453.960938 411.152344 453.230469 410.421875 452.496094 409.6875 C 451.683594 408.90625 450.898438 407.9375 449.929688 407.414062 C 448.855469 406.8125 447.625 407.804688 448.121094 408.984375 Z M 448.121094 408.984375 " fill-opacity="1" fill-rule="nonzero"/><path fill="#000000" d="M 406.226562 472.632812 C 420.761719 462.046875 439.117188 456.714844 457.050781 457.707031 C 462.105469 457.992188 467.082031 458.804688 471.976562 460.03125 C 474.097656 460.554688 475.277344 457.394531 473.128906 456.792969 C 455.089844 451.773438 434.792969 453.996094 418.0625 462.28125 C 413.324219 464.632812 408.820312 467.5625 404.683594 470.855469 C 403.503906 471.847656 405.023438 473.519531 406.226562 472.632812 Z M 406.226562 472.632812 " fill-opacity="1" fill-rule="nonzero"/><path fill="#000000" d="M 449.039062 454.988281 C 447.574219 457.472656 447.808594 461.234375 448.566406 463.902344 C 449.378906 466.644531 450.898438 469.363281 453.515625 470.777344 C 456.136719 472.1875 459.148438 471.71875 461.320312 469.703125 C 463.597656 467.640625 464.671875 464.371094 464.960938 461.390625 C 465.144531 459.40625 462.238281 458.832031 461.582031 460.6875 C 460.875 462.621094 460.613281 464.816406 459.171875 466.382812 C 458.019531 467.640625 456.371094 468.082031 454.90625 467.089844 C 453.308594 466.019531 452.417969 464.164062 451.894531 462.359375 C 451.605469 461.367188 451.394531 460.347656 451.34375 459.328125 C 451.265625 458.152344 451.554688 456.972656 451.472656 455.796875 C 451.394531 454.675781 449.773438 453.734375 449.039062 454.988281 Z M 449.039062 454.988281 " fill-opacity="1" fill-rule="nonzero"/><path fill="#0e67ff" d="M 122.453125 430.132812 L 124.171875 445.398438 L 125.894531 460.667969 L 122.453125 430.132812 " fill-opacity="1" fill-rule="nonzero"/><g clip-path="url(#e96dfa33d6)"><path fill="#0e67ff" d="M 80.636719 560.785156 L 81.574219 558.683594 C 86.296875 549.339844 86.671875 542.808594 82.703125 539.085938 C 80.828125 537.5 78.074219 536.171875 74.433594 535.113281 C 51.730469 530.113281 36.933594 525.773438 30.039062 522.089844 C 18.160156 515.996094 10.457031 509.472656 6.925781 502.527344 C 2.417969 496.304688 0.144531 484.992188 0.105469 468.597656 C 0.355469 454.660156 3.5 440.484375 9.546875 426.074219 C 13.585938 415.460938 23.898438 406.265625 40.488281 398.484375 C 58.769531 390.589844 79.546875 386.660156 102.816406 386.699219 C 155.675781 387.550781 189.972656 400.695312 205.714844 426.136719 C 212.5 438.132812 215.070312 452.914062 213.425781 470.480469 C 211.78125 488.320312 205.785156 503.449219 195.441406 515.855469 C 192.835938 518.695312 189.992188 521.207031 186.90625 523.394531 C 185.5625 524.796875 180.554688 527.503906 171.886719 531.515625 C 170.179688 532.429688 164.695312 534.253906 155.429688 536.992188 C 133.277344 542.378906 119.542969 546.09375 114.21875 548.136719 C 107.914062 550.070312 96.722656 554.285156 80.636719 560.785156 " fill-opacity="1" fill-rule="nonzero"/></g><path fill="#000000" d="M 141.554688 425.363281 C 141.195312 427.160156 141.433594 429.167969 141.433594 431.011719 C 141.457031 432.953125 141.527344 434.84375 141.695312 436.757812 C 141.863281 438.601562 144.992188 438.863281 145.375 437.023438 C 145.828125 434.9375 146.042969 433 145.996094 430.894531 C 145.921875 428.835938 145.851562 426.609375 145.0625 424.691406 C 144.753906 423.953125 143.796875 423.542969 143.058594 423.6875 C 142.199219 423.855469 141.71875 424.550781 141.554688 425.363281 Z M 141.554688 425.363281 " fill-opacity="1" fill-rule="nonzero"/><path fill="#000000" d="M 167.515625 424.742188 C 166.796875 426.175781 167.085938 428.308594 167.15625 429.886719 C 167.226562 431.730469 167.441406 433.429688 167.921875 435.203125 C 168.566406 437.621094 171.621094 437.261719 172.101562 434.964844 C 172.503906 433.046875 172.53125 431.300781 172.316406 429.363281 C 172.125 427.613281 171.957031 425.53125 170.832031 424.09375 C 169.832031 422.824219 168.109375 423.519531 167.515625 424.742188 Z M 167.515625 424.742188 " fill-opacity="1" fill-rule="nonzero"/><path fill="#000000" d="M 131.855469 481.40625 C 137.5625 475.972656 144.132812 470.871094 151.796875 468.644531 C 158.699219 466.660156 166.320312 466.945312 172.71875 470.464844 C 174.441406 471.398438 176.0625 472.523438 177.472656 473.886719 C 178.929688 475.277344 180.101562 476.90625 181.414062 478.414062 C 182.679688 479.824219 184.519531 478.269531 183.96875 476.6875 C 182.703125 473.050781 179.265625 470.105469 176.089844 468.144531 C 172.695312 466.011719 168.875 464.671875 164.910156 464.050781 C 156.550781 462.734375 148.074219 465.269531 141.050781 469.769531 C 136.800781 472.5 133.167969 475.851562 130.039062 479.800781 C 129.230469 480.902344 130.875 482.339844 131.855469 481.40625 Z M 131.855469 481.40625 " fill-opacity="1" fill-rule="nonzero"/><path fill="#000000" d="M 132.980469 450.714844 C 129.96875 450.644531 127.054688 451.910156 124.90625 454.019531 C 122.828125 456.078125 120.488281 459.789062 121.847656 462.78125 C 122.46875 464.144531 123.976562 465.148438 125.503906 464.863281 C 127.152344 464.550781 128.34375 462.925781 129.324219 461.679688 C 131.523438 458.949219 133.121094 455.765625 134.054688 452.390625 C 134.554688 450.59375 131.832031 449.613281 131.308594 451.433594 C 130.636719 453.730469 129.660156 455.910156 128.320312 457.898438 C 127.652344 458.878906 126.9375 459.835938 126.125 460.699219 C 125.550781 461.296875 124.621094 462.421875 124.546875 460.839844 C 124.476562 458.925781 126.125 456.820312 127.460938 455.621094 C 129.0625 454.210938 130.996094 453.347656 133.074219 452.964844 C 134.339844 452.75 134.292969 450.738281 132.980469 450.714844 Z M 132.980469 450.714844 " fill-opacity="1" fill-rule="nonzero"/><g clip-path="url(#51175a7f58)"><path fill="#000000" d="M 178.214844 449.277344 C 177.472656 452.34375 178.117188 455.527344 179.839844 458.160156 C 181.390625 460.554688 184.496094 463.546875 187.625 462.828125 C 189.105469 462.46875 190.324219 461.199219 190.394531 459.644531 C 190.441406 457.992188 189.058594 456.4375 188.078125 455.214844 C 185.929688 452.511719 183.179688 450.285156 180.148438 448.65625 C 178.523438 447.792969 176.875 450.164062 178.523438 451.074219 C 180.554688 452.199219 182.417969 453.539062 184.015625 455.214844 C 184.828125 456.03125 185.570312 456.914062 186.238281 457.847656 C 186.644531 458.398438 187.980469 459.8125 186.550781 459.789062 C 184.636719 459.738281 182.703125 457.324219 181.867188 455.8125 C 180.839844 453.945312 180.386719 451.863281 180.457031 449.757812 C 180.484375 448.511719 178.546875 447.960938 178.214844 449.277344 Z M 178.214844 449.277344 " fill-opacity="1" fill-rule="nonzero"/></g></svg>