<svg xmlns="http://www.w3.org/2000/svg" xmlns:xlink="http://www.w3.org/1999/xlink" width="1024" zoomAndPan="magnify" viewBox="0 0 768 767.999994" height="1024" preserveAspectRatio="xMidYMid meet" version="1.0"><defs><clipPath id="d0bcc58b0c"><path d="M 9.800781 77 L 765 77 L 765 691.683594 L 9.800781 691.683594 Z M 9.800781 77 " clip-rule="nonzero"/></clipPath><clipPath id="4934979653"><path d="M 375.015625 273 L 639 273 L 639 427 L 375.015625 427 Z M 375.015625 273 " clip-rule="nonzero"/></clipPath></defs><path fill="#ffd115" d="M 441.523438 230.359375 L 447.59375 284.273438 L 453.667969 338.183594 L 441.523438 230.359375 " fill-opacity="1" fill-rule="nonzero"/><g clip-path="url(#d0bcc58b0c)"><path fill="#ffd115" d="M 293.996094 691.683594 L 297.300781 684.273438 C 313.964844 651.277344 315.289062 628.210938 301.277344 615.074219 C 294.667969 609.464844 284.945312 604.785156 272.105469 601.035156 C 192.003906 583.386719 139.789062 568.0625 115.460938 555.0625 C 73.554688 533.539062 46.375 510.511719 33.921875 485.984375 C 18.019531 464.007812 9.996094 424.074219 9.851562 366.175781 C 10.734375 316.96875 21.835938 266.921875 43.164062 216.035156 C 57.414062 178.558594 93.804688 146.085938 152.335938 118.613281 C 216.839844 90.734375 290.144531 76.867188 372.25 77.007812 C 558.742188 80.011719 679.757812 126.425781 735.300781 216.25 C 759.238281 258.605469 768.308594 310.796875 762.507812 372.824219 C 756.703125 435.824219 735.546875 489.230469 699.046875 533.046875 C 689.863281 543.070312 679.824219 551.941406 668.933594 559.660156 C 664.195312 564.613281 646.53125 574.175781 615.941406 588.339844 C 609.925781 591.566406 590.566406 598.011719 557.875 607.675781 C 479.726562 626.691406 431.257812 639.808594 412.472656 647.03125 C 390.234375 653.855469 350.742188 668.738281 293.996094 691.683594 " fill-opacity="1" fill-rule="nonzero"/></g><path fill="#000000" d="M 443.058594 226.570312 C 441.804688 233.328125 442.609375 240.898438 442.699219 247.835938 C 442.789062 255.132812 443.058594 262.25 443.683594 269.457031 C 444.3125 276.394531 456.046875 277.386719 457.480469 270.449219 C 459.183594 262.609375 459.988281 255.3125 459.808594 247.382812 C 459.539062 239.636719 459.273438 231.257812 456.316406 224.046875 C 455.152344 221.253906 451.566406 219.722656 448.789062 220.265625 C 445.476562 220.894531 443.683594 223.507812 443.058594 226.570312 Z M 443.058594 226.570312 " fill-opacity="1" fill-rule="nonzero"/><path fill="#000000" d="M 540.433594 224.230469 C 537.746094 229.632812 538.820312 237.652344 539.089844 243.601562 C 539.355469 250.539062 540.164062 256.933594 541.957031 263.601562 C 544.375 272.703125 555.839844 271.351562 557.632812 262.699219 C 559.15625 255.492188 559.246094 248.914062 558.4375 241.617188 C 557.722656 235.039062 557.09375 227.203125 552.882812 221.796875 C 549.121094 217.019531 542.671875 219.632812 540.433594 224.230469 Z M 540.433594 224.230469 " fill-opacity="1" fill-rule="nonzero"/><g clip-path="url(#4934979653)"><path fill="#000000" d="M 375.511719 338.5625 C 375.246094 352.167969 382.050781 364.960938 389.578125 375.863281 C 397.011719 386.585938 406.507812 395.957031 417.167969 403.433594 C 437.503906 417.667969 462.40625 425.777344 487.132812 426.859375 C 512.214844 427.941406 537.925781 422.714844 559.960938 410.460938 C 581.910156 398.296875 600.453125 380.367188 613.980469 359.105469 C 621.414062 347.390625 627.414062 334.597656 631.625 321.355469 C 633.867188 314.507812 635.65625 307.390625 636.820312 300.269531 C 637.898438 293.242188 639.332031 285.226562 637.089844 278.378906 C 634.941406 271.890625 627.058594 270.988281 624.011719 277.386719 C 621.59375 282.523438 621.324219 288.199219 620.160156 293.785156 C 618.996094 299.28125 617.742188 304.777344 616.128906 310.183594 C 613.082031 320.542969 608.960938 330.632812 603.675781 340.003906 C 593.015625 359.015625 578.324219 376.042969 560.050781 388.117188 C 523.859375 411.902344 474.949219 415.144531 436.25 395.144531 C 424.960938 389.289062 414.480469 381.449219 405.882812 372.167969 C 396.117188 361.628906 390.5625 349.375 383.84375 336.851562 C 381.875 333.335938 375.601562 333.96875 375.511719 338.5625 Z M 375.511719 338.5625 " fill-opacity="1" fill-rule="nonzero"/></g></svg>