<svg xmlns="http://www.w3.org/2000/svg" xmlns:xlink="http://www.w3.org/1999/xlink" width="1024" zoomAndPan="magnify" viewBox="0 0 768 767.999994" height="1024" preserveAspectRatio="xMidYMid meet" version="1.0"><defs><clipPath id="id1"><path d="M 3 71.308594 L 765 71.308594 L 765 691.6875 L 3 691.6875 Z M 3 71.308594 " clip-rule="nonzero"/></clipPath><clipPath id="id2"><path d="M 371.476562 269 L 638 269 L 638 425 L 371.476562 425 Z M 371.476562 269 " clip-rule="nonzero"/></clipPath></defs><path fill="#ffd115" d="M 438.578125 226.242188 L 444.707031 280.636719 L 450.832031 335.03125 L 438.578125 226.242188 " fill-opacity="1" fill-rule="nonzero"/><g clip-path="url(#id1)"><path fill="#ffd115" d="M 289.734375 691.6875 L 293.070312 684.210938 C 309.882812 650.917969 311.21875 627.648438 297.078125 614.394531 C 290.414062 608.734375 280.601562 604.011719 267.648438 600.230469 C 186.828125 582.425781 134.148438 566.960938 109.605469 553.847656 C 67.324219 532.128906 39.902344 508.898438 27.335938 484.148438 C 11.292969 461.980469 3.195312 421.6875 3.046875 363.273438 C 3.941406 313.625 15.144531 263.128906 36.660156 211.789062 C 51.039062 173.980469 87.753906 141.214844 146.808594 113.496094 C 211.890625 85.371094 285.847656 71.378906 368.6875 71.519531 C 556.847656 74.550781 678.941406 121.378906 734.980469 212.003906 C 759.132812 254.742188 768.28125 307.398438 762.433594 369.976562 C 756.574219 433.542969 735.230469 487.425781 698.402344 531.632812 C 689.136719 541.746094 679.007812 550.695312 668.019531 558.484375 C 663.242188 563.484375 645.417969 573.128906 614.558594 587.421875 C 608.484375 590.675781 588.957031 597.179688 555.96875 606.929688 C 477.121094 626.113281 428.222656 639.347656 409.269531 646.636719 C 386.832031 653.523438 346.988281 668.539062 289.734375 691.6875 " fill-opacity="1" fill-rule="nonzero"/></g><path fill="#000000" d="M 440.128906 222.417969 C 438.863281 229.238281 439.675781 236.875 439.765625 243.871094 C 439.855469 251.234375 440.128906 258.417969 440.761719 265.691406 C 441.394531 272.6875 453.234375 273.6875 454.679688 266.691406 C 456.394531 258.78125 457.210938 251.417969 457.027344 243.417969 C 456.757812 235.601562 456.488281 227.148438 453.503906 219.875 C 452.328125 217.054688 448.714844 215.511719 445.910156 216.054688 C 442.566406 216.691406 440.761719 219.328125 440.128906 222.417969 Z M 440.128906 222.417969 " fill-opacity="1" fill-rule="nonzero"/><path fill="#000000" d="M 538.371094 220.054688 C 535.660156 225.511719 536.746094 233.601562 537.015625 239.601562 C 537.289062 246.601562 538.101562 253.054688 539.910156 259.78125 C 542.347656 268.960938 553.917969 267.597656 555.726562 258.871094 C 557.261719 251.601562 557.351562 244.964844 556.539062 237.601562 C 555.816406 230.964844 555.183594 223.054688 550.933594 217.601562 C 547.140625 212.785156 540.632812 215.421875 538.371094 220.054688 Z M 538.371094 220.054688 " fill-opacity="1" fill-rule="nonzero"/><g clip-path="url(#id2)"><path fill="#000000" d="M 371.980469 335.410156 C 371.707031 349.136719 378.578125 362.046875 386.167969 373.046875 C 393.671875 383.863281 403.25 393.316406 414.007812 400.863281 C 434.523438 415.226562 459.648438 423.40625 484.59375 424.496094 C 509.902344 425.585938 535.839844 420.316406 558.074219 407.953125 C 580.21875 395.679688 598.929688 377.589844 612.574219 356.136719 C 620.078125 344.320312 626.132812 331.414062 630.378906 318.050781 C 632.640625 311.140625 634.449219 303.960938 635.621094 296.777344 C 636.707031 289.6875 638.152344 281.597656 635.894531 274.6875 C 633.726562 268.144531 625.769531 267.234375 622.699219 273.6875 C 620.257812 278.871094 619.988281 284.597656 618.8125 290.234375 C 617.636719 295.777344 616.371094 301.324219 614.746094 306.777344 C 611.671875 317.230469 607.515625 327.414062 602.183594 336.867188 C 591.425781 356.046875 576.605469 373.226562 558.164062 385.410156 C 521.652344 409.40625 472.304688 412.679688 433.257812 392.5 C 421.871094 386.589844 411.296875 378.683594 402.617188 369.320312 C 392.765625 358.683594 387.164062 346.320312 380.386719 333.683594 C 378.398438 330.140625 372.070312 330.777344 371.980469 335.410156 Z M 371.980469 335.410156 " fill-opacity="1" fill-rule="nonzero"/></g></svg>