<svg xmlns="http://www.w3.org/2000/svg" xmlns:xlink="http://www.w3.org/1999/xlink" width="1024" zoomAndPan="magnify" viewBox="0 0 768 767.999994" height="1024" preserveAspectRatio="xMidYMid meet" version="1.0"><defs><clipPath id="id1"><path d="M 5.652344 77 L 760 77 L 760 691.050781 L 5.652344 691.050781 Z M 5.652344 77 " clip-rule="nonzero"/></clipPath></defs><path fill="#ff9641" d="M 437.253906 230.199219 L 443.328125 284.058594 L 449.398438 337.917969 L 437.253906 230.199219 " fill-opacity="1" fill-rule="nonzero"/><g clip-path="url(#id1)"><path fill="#ff9641" d="M 289.769531 691.050781 L 293.074219 683.648438 C 309.734375 650.683594 311.058594 627.644531 297.046875 614.519531 C 290.441406 608.917969 280.722656 604.242188 267.886719 600.496094 C 187.804688 582.867188 135.605469 567.558594 111.285156 554.570312 C 69.390625 533.066406 42.21875 510.066406 29.765625 485.5625 C 13.867188 463.609375 5.847656 423.714844 5.699219 365.878906 C 6.582031 316.71875 17.683594 266.726562 39.003906 215.894531 C 53.25 178.457031 89.632812 146.015625 148.148438 118.570312 C 212.636719 90.71875 285.917969 76.867188 368.003906 77.007812 C 554.445312 80.007812 675.425781 126.371094 730.953125 216.105469 C 754.882812 258.421875 763.953125 310.558594 758.15625 372.519531 C 752.347656 435.457031 731.203125 488.808594 694.710938 532.578125 C 685.527344 542.589844 675.492188 551.453125 664.605469 559.164062 C 659.867188 564.113281 642.210938 573.664062 611.628906 587.8125 C 605.613281 591.035156 586.261719 597.476562 553.574219 607.128906 C 475.449219 626.125 426.992188 639.230469 408.214844 646.445312 C 385.980469 653.261719 346.5 668.132812 289.769531 691.050781 " fill-opacity="1" fill-rule="nonzero"/></g><path fill="#000000" d="M 466.289062 216.257812 C 467.503906 220.640625 471.609375 222.785156 475.15625 225.304688 C 479.449219 228.285156 483.742188 231.175781 487.941406 234.441406 C 496.0625 240.59375 503.714844 247.402344 510.808594 254.671875 C 511.460938 251.410156 512.113281 248.144531 512.769531 244.789062 C 505.394531 249.078125 498.113281 253.460938 490.835938 257.84375 C 483.742188 262.132812 475.902344 265.953125 469.554688 271.269531 C 464.515625 275.652344 470.117188 282.644531 475.714844 280.5 C 483.273438 277.609375 490.183594 272.667969 497.179688 268.566406 C 504.273438 264.464844 511.367188 260.359375 518.367188 256.164062 C 521.632812 254.207031 523.40625 249.453125 520.328125 246.28125 C 512.769531 238.730469 504.648438 231.738281 495.96875 225.488281 C 491.769531 222.414062 487.382812 219.429688 482.902344 216.820312 C 479.074219 214.582031 473.664062 210.851562 469.089844 212.15625 C 467.316406 212.621094 465.730469 214.300781 466.289062 216.257812 Z M 466.289062 216.257812 " fill-opacity="1" fill-rule="nonzero"/><path fill="#000000" d="M 613.65625 195.746094 C 605.910156 201.992188 599.84375 211.410156 594.433594 219.710938 C 588.738281 228.472656 583.792969 237.609375 579.3125 246.933594 C 577.914062 249.824219 580.152344 254.300781 583.230469 255.046875 C 591.351562 257.097656 599.285156 259.613281 607.125 262.597656 C 614.40625 265.394531 622.152344 270.804688 630.082031 271.457031 C 634.65625 271.828125 636.898438 266.515625 634.285156 263.15625 C 629.335938 256.816406 619.445312 253.742188 612.164062 250.851562 C 604.136719 247.585938 595.925781 245.070312 587.523438 243.019531 C 588.832031 245.722656 590.136719 248.425781 591.445312 251.128906 C 595.644531 242.179688 600.21875 233.320312 605.257812 224.835938 C 610.109375 216.632812 616.085938 208.613281 620.003906 199.941406 C 621.683594 196.121094 616.550781 193.507812 613.65625 195.746094 Z M 613.65625 195.746094 " fill-opacity="1" fill-rule="nonzero"/><path fill="#000000" d="M 461.15625 345.300781 C 476.089844 351.453125 494.195312 351.171875 510.246094 350.894531 C 527.234375 350.613281 544.3125 349.214844 561.019531 346.140625 C 594.058594 340.078125 626.910156 328.890625 656.121094 312.292969 C 653.042969 309.589844 650.054688 306.886719 646.976562 304.183594 C 632.230469 343.15625 618.699219 386.042969 585.191406 413.457031 C 571.660156 424.550781 553.738281 433.503906 535.820312 432.851562 C 520.699219 432.289062 506.609375 423.804688 495.875 413.550781 C 480.660156 399.003906 470.300781 380.542969 463.210938 360.777344 C 460.78125 354.15625 450.238281 357.980469 451.636719 364.691406 C 459.289062 401.335938 489.0625 439.65625 527.792969 446.089844 C 547.113281 449.257812 567.644531 441.800781 583.511719 431.359375 C 601.898438 419.238281 616.363281 402.082031 627.191406 383.0625 C 640.628906 359.472656 649.214844 333.550781 659.484375 308.472656 C 661.628906 303.15625 655.28125 297.75 650.335938 300.359375 C 621.402344 315.929688 590.976562 327.492188 558.6875 333.550781 C 542.726562 336.535156 526.675781 338.585938 510.433594 339.144531 C 494.289062 339.707031 477.675781 337.28125 461.714844 339.238281 C 458.355469 339.796875 458.542969 344.273438 461.15625 345.300781 Z M 461.15625 345.300781 " fill-opacity="1" fill-rule="nonzero"/></svg>