<svg xmlns="http://www.w3.org/2000/svg" xmlns:xlink="http://www.w3.org/1999/xlink" width="1024" zoomAndPan="magnify" viewBox="0 0 768 767.999994" height="1024" preserveAspectRatio="xMidYMid meet" version="1.0"><defs><clipPath id="id1"><path d="M 5.652344 77 L 760 77 L 760 691.050781 L 5.652344 691.050781 Z M 5.652344 77 " clip-rule="nonzero"/></clipPath><clipPath id="id2"><path d="M 472 243.492188 L 490 243.492188 L 490 288 L 472 288 Z M 472 243.492188 " clip-rule="nonzero"/></clipPath><clipPath id="id3"><path d="M 587 243.492188 L 604 243.492188 L 604 288 L 587 288 Z M 587 243.492188 " clip-rule="nonzero"/></clipPath></defs><path fill="#9b69ff" d="M 437.253906 230.199219 L 443.328125 284.058594 L 449.398438 337.917969 L 437.253906 230.199219 " fill-opacity="1" fill-rule="nonzero"/><g clip-path="url(#id1)"><path fill="#9b69ff" d="M 289.769531 691.050781 L 293.074219 683.648438 C 309.734375 650.683594 311.058594 627.644531 297.046875 614.519531 C 290.441406 608.917969 280.722656 604.242188 267.886719 600.496094 C 187.804688 582.867188 135.605469 567.558594 111.285156 554.570312 C 69.390625 533.066406 42.21875 510.066406 29.765625 485.5625 C 13.867188 463.609375 5.847656 423.714844 5.699219 365.878906 C 6.582031 316.71875 17.683594 266.726562 39.003906 215.894531 C 53.25 178.457031 89.632812 146.015625 148.148438 118.570312 C 212.636719 90.71875 285.917969 76.867188 368.003906 77.007812 C 554.445312 80.007812 675.425781 126.371094 730.953125 216.105469 C 754.882812 258.421875 763.953125 310.558594 758.15625 372.519531 C 752.347656 435.457031 731.203125 488.808594 694.710938 532.578125 C 685.527344 542.589844 675.492188 551.453125 664.605469 559.164062 C 659.867188 564.113281 642.210938 573.664062 611.628906 587.8125 C 605.613281 591.035156 586.261719 597.476562 553.574219 607.128906 C 475.449219 626.125 426.992188 639.230469 408.214844 646.445312 C 385.980469 653.261719 346.5 668.132812 289.769531 691.050781 " fill-opacity="1" fill-rule="nonzero"/></g><g clip-path="url(#id2)"><path fill="#000000" d="M 476.609375 245.089844 C 472.199219 249.886719 472.898438 255.582031 472.898438 261.675781 C 472.800781 268.273438 473.402344 274.667969 474.203125 281.160156 C 475.304688 289.554688 489.035156 288.855469 489.234375 280.261719 C 489.335938 273.667969 489.132812 267.273438 488.332031 260.777344 C 487.53125 254.683594 487.53125 248.988281 482.621094 244.691406 C 481.117188 243.492188 477.910156 243.691406 476.609375 245.089844 Z M 476.609375 245.089844 " fill-opacity="1" fill-rule="nonzero"/></g><g clip-path="url(#id3)"><path fill="#000000" d="M 591.246094 245.089844 C 586.9375 249.886719 587.539062 255.582031 587.539062 261.675781 C 587.4375 268.273438 588.039062 274.667969 588.839844 281.160156 C 589.941406 289.554688 603.671875 288.855469 603.871094 280.261719 C 603.972656 273.667969 603.769531 267.273438 602.96875 260.777344 C 602.167969 254.683594 602.167969 248.988281 597.257812 244.691406 C 595.753906 243.492188 592.546875 243.691406 591.246094 245.089844 Z M 591.246094 245.089844 " fill-opacity="1" fill-rule="nonzero"/></g><path fill="#000000" d="M 404.160156 343.609375 C 406.261719 354.703125 416.683594 362.996094 425.402344 369.089844 C 435.023438 375.886719 445.84375 380.980469 456.765625 385.378906 C 481.417969 395.070312 508.574219 400.164062 535.027344 400.664062 C 584.128906 401.664062 633.53125 385.378906 669.304688 351.304688 C 678.527344 342.511719 686.941406 332.820312 694.058594 322.328125 C 700.871094 312.4375 708.585938 300.546875 709.789062 288.457031 C 710.390625 282.960938 703.578125 281.660156 700.472656 285.257812 C 693.757812 293.25 689.546875 303.242188 683.4375 311.636719 C 677.625 319.730469 671.109375 327.023438 663.796875 333.820312 C 648.5625 347.90625 630.828125 359 611.886719 367.292969 C 568.296875 386.476562 516.890625 386.875 471.597656 373.488281 C 459.671875 369.988281 447.949219 365.894531 436.925781 360.199219 C 426.40625 354.703125 417.585938 345.910156 406.765625 341.113281 C 405.5625 340.414062 403.859375 342.011719 404.160156 343.609375 Z M 404.160156 343.609375 " fill-opacity="1" fill-rule="nonzero"/><path fill="#000000" d="M 618.800781 371.6875 C 616.296875 377.285156 620.40625 385.777344 622.507812 391.171875 C 625.113281 397.96875 628.621094 404.261719 633.132812 410.058594 C 641.347656 420.648438 654.175781 428.441406 667.804688 429.042969 C 695.859375 430.242188 710.992188 400.367188 705.382812 375.785156 C 703.578125 367.992188 700.269531 360.597656 695.960938 353.804688 C 691.753906 347.207031 686.242188 339.714844 678.824219 336.515625 C 674.015625 334.417969 670.910156 340.015625 672.3125 343.910156 C 674.515625 350.304688 680.128906 356 683.636719 361.796875 C 687.34375 367.691406 690.148438 374.085938 691.351562 380.980469 C 693.15625 391.574219 689.75 404.5625 680.230469 410.558594 C 669.707031 417.351562 656.078125 412.15625 647.460938 404.761719 C 642.050781 400.164062 638.042969 394.070312 634.632812 387.875 C 632.832031 384.679688 631.429688 381.382812 629.722656 378.082031 C 628.222656 375.285156 626.617188 371.488281 623.710938 369.988281 C 621.808594 368.992188 619.703125 369.589844 618.800781 371.6875 Z M 618.800781 371.6875 " fill-opacity="1" fill-rule="nonzero"/></svg>