<svg xmlns="http://www.w3.org/2000/svg" xmlns:xlink="http://www.w3.org/1999/xlink" width="1024" zoomAndPan="magnify" viewBox="0 0 768 767.999994" height="1024" preserveAspectRatio="xMidYMid meet" version="1.0"><defs><clipPath id="id1"><path d="M 3 74.054688 L 763 74.054688 L 763 691.273438 L 3 691.273438 Z M 3 74.054688 " clip-rule="nonzero"/></clipPath></defs><path fill="#ffabf9" d="M 437.546875 228.195312 L 443.660156 282.316406 L 449.773438 336.433594 L 437.546875 228.195312 " fill-opacity="1" fill-rule="nonzero"/><g clip-path="url(#id1)"><path fill="#ffabf9" d="M 289.046875 691.273438 L 292.375 683.835938 C 309.148438 650.710938 310.480469 627.558594 296.375 614.371094 C 289.726562 608.742188 279.9375 604.046875 267.011719 600.28125 C 186.378906 582.566406 133.820312 567.183594 109.332031 554.132812 C 67.148438 532.527344 39.789062 509.414062 27.253906 484.792969 C 11.246094 462.734375 3.167969 422.648438 3.023438 364.53125 C 3.910156 315.136719 15.089844 264.898438 36.554688 213.820312 C 50.898438 176.203125 87.53125 143.605469 146.453125 116.027344 C 211.378906 88.042969 285.167969 74.121094 367.820312 74.265625 C 555.542969 77.277344 677.359375 123.867188 733.265625 214.035156 C 757.363281 256.554688 766.492188 308.941406 760.65625 371.203125 C 754.8125 434.441406 733.519531 488.054688 696.777344 532.035156 C 687.53125 542.09375 677.425781 551 666.460938 558.75 C 661.691406 563.722656 643.914062 573.316406 613.121094 587.539062 C 607.0625 590.773438 587.578125 597.246094 554.667969 606.949219 C 476.003906 626.03125 427.214844 639.203125 408.304688 646.453125 C 385.921875 653.300781 346.167969 668.242188 289.046875 691.273438 " fill-opacity="1" fill-rule="nonzero"/></g><path fill="#000000" d="M 387.121094 235.5 C 387.359375 257.726562 412.636719 273.261719 433.121094 270.394531 C 443.78125 268.84375 453.367188 262.507812 459.835938 254.144531 C 464.984375 247.332031 472.773438 231.917969 465.824219 224.269531 C 463.1875 221.402344 459.476562 222.117188 457.199219 224.867188 C 454.5625 227.855469 455.164062 231.917969 454.085938 235.5 C 453.007812 239.207031 451.210938 242.671875 448.8125 245.660156 C 444.5 251.15625 438.273438 255.457031 431.324219 256.652344 C 424.136719 257.847656 417.066406 255.695312 411.199219 251.753906 C 404.25 247.09375 401.253906 240.878906 397.78125 233.46875 C 395.503906 228.570312 387 229.886719 387.121094 235.5 Z M 387.121094 235.5 " fill-opacity="1" fill-rule="nonzero"/><path fill="#000000" d="M 560.460938 220.804688 C 556.988281 231.082031 565.851562 241.714844 573.636719 247.453125 C 583.339844 254.742188 596.28125 259.28125 608.5 258.324219 C 629.820312 256.535156 646.234375 232.992188 632.816406 213.871094 C 628.265625 207.417969 616.765625 214.949219 621.195312 221.640625 C 624.3125 226.417969 623.832031 231.679688 620.476562 236.339844 C 616.523438 241.835938 610.175781 243.390625 603.707031 243.03125 C 596.160156 242.550781 588.851562 239.804688 582.742188 235.621094 C 579.867188 233.710938 576.992188 231.558594 574.957031 228.808594 C 572.917969 226.179688 572.082031 222.953125 570.402344 220.085938 C 568.007812 216.5 562.019531 216.144531 560.460938 220.804688 Z M 560.460938 220.804688 " fill-opacity="1" fill-rule="nonzero"/><path fill="#000000" d="M 521.289062 354.523438 C 531.710938 348.546875 540.816406 341.734375 552.914062 339.464844 C 553.394531 339.347656 556.386719 339.226562 556.628906 338.867188 C 555.550781 335.878906 554.949219 335.164062 554.832031 336.71875 C 554.832031 337.195312 554.710938 337.671875 554.472656 338.152344 C 553.152344 340.660156 552.554688 343.410156 551.117188 345.917969 C 548.121094 351.414062 544.167969 356.195312 539.378906 360.378906 C 542.730469 363.363281 546.085938 366.234375 549.441406 369.21875 C 552.195312 364.203125 558.304688 362.171875 563.816406 363.363281 C 570.523438 364.800781 574.117188 370.65625 574.476562 377.226562 C 575.316406 395.03125 554.832031 400.886719 540.695312 398.976562 C 529.792969 397.542969 528.355469 414.988281 539.378906 416.0625 C 552.792969 417.378906 567.050781 414.152344 576.992188 404.59375 C 585.738281 396.226562 590.050781 383.320312 587.773438 371.492188 C 585.617188 360.019531 576.992188 351.296875 565.492188 349.382812 C 554.710938 347.589844 543.570312 352.011719 538.417969 361.8125 C 535.066406 368.265625 542.371094 376.152344 548.480469 370.65625 C 556.507812 363.484375 580.347656 334.683594 562.617188 326.082031 C 555.070312 322.378906 543.929688 327.039062 536.863281 330.023438 C 528.355469 333.609375 519.730469 339.226562 514.820312 347.234375 C 512.425781 351.296875 516.738281 357.152344 521.289062 354.523438 Z M 521.289062 354.523438 " fill-opacity="1" fill-rule="nonzero"/><path fill="#000000" d="M 637.488281 346.636719 C 634.132812 341.257812 629.222656 336.71875 625.390625 331.816406 C 620.957031 326.320312 617.003906 319.988281 614.25 313.535156 C 613.53125 311.742188 611.734375 307.796875 612.691406 305.765625 C 614.25 302.421875 618.203125 305.886719 619.640625 307.796875 C 623.59375 312.9375 624.789062 319.507812 629.222656 324.527344 C 632.335938 327.992188 637.726562 325.84375 638.328125 321.539062 C 639.164062 315.683594 642.398438 310.546875 647.191406 307.199219 C 649.109375 305.886719 652.820312 303.496094 655.335938 304.453125 C 659.53125 305.886719 658.210938 312.699219 657.375 315.683594 C 653.898438 327.875 644.316406 335.878906 634.492188 342.929688 C 629.941406 346.15625 635.09375 353.566406 640.003906 351.058594 C 648.988281 346.394531 656.773438 338.75 662.164062 330.265625 C 667.316406 321.898438 671.871094 309.828125 666.238281 300.628906 C 660.847656 291.90625 650.664062 292.859375 642.878906 297.640625 C 634.613281 302.78125 629.460938 311.144531 628.144531 320.703125 C 631.140625 319.75 634.253906 318.671875 637.25 317.714844 C 630.78125 310.425781 630.660156 299.910156 621.078125 295.132812 C 613.050781 291.1875 603.46875 294.890625 602.03125 304.214844 C 600.59375 313.414062 606.460938 322.855469 611.492188 329.90625 C 617.003906 337.554688 625.03125 347.589844 634.734375 350.21875 C 636.289062 350.578125 638.6875 348.667969 637.488281 346.636719 Z M 637.488281 346.636719 " fill-opacity="1" fill-rule="nonzero"/></svg>