<svg xmlns="http://www.w3.org/2000/svg" xmlns:xlink="http://www.w3.org/1999/xlink" width="1024" zoomAndPan="magnify" viewBox="0 0 768 767.999994" height="1024" preserveAspectRatio="xMidYMid meet" version="1.0"><defs><clipPath id="id1"><path d="M 7 76.351562 L 762 76.351562 L 762 691.351562 L 7 691.351562 Z M 7 76.351562 " clip-rule="nonzero"/></clipPath></defs><path fill="#ff1616" d="M 439.027344 229.941406 L 445.105469 283.863281 L 451.183594 337.789062 L 439.027344 229.941406 " fill-opacity="1" fill-rule="nonzero"/><g clip-path="url(#id1)"><path fill="#ff1616" d="M 291.394531 691.351562 L 294.703125 683.941406 C 311.378906 650.9375 312.707031 627.867188 298.679688 614.730469 C 292.070312 609.117188 282.339844 604.4375 269.488281 600.6875 C 189.328125 583.035156 137.078125 567.710938 112.734375 554.707031 C 70.800781 533.175781 43.597656 510.144531 31.136719 485.613281 C 15.222656 463.636719 7.191406 423.691406 7.046875 365.785156 C 7.929688 316.566406 19.042969 266.511719 40.382812 215.617188 C 54.644531 178.132812 91.0625 145.652344 149.636719 118.171875 C 214.183594 90.289062 287.542969 76.417969 369.707031 76.558594 C 556.332031 79.5625 677.433594 125.984375 733.015625 215.828125 C 756.96875 258.195312 766.046875 310.394531 760.242188 372.429688 C 754.433594 435.445312 733.261719 488.863281 696.734375 532.683594 C 687.546875 542.710938 677.5 551.585938 666.597656 559.304688 C 661.859375 564.261719 644.183594 573.820312 613.570312 587.988281 C 607.550781 591.214844 588.179688 597.664062 555.460938 607.332031 C 477.257812 626.347656 428.753906 639.46875 409.957031 646.691406 C 387.703125 653.519531 348.183594 668.40625 291.394531 691.351562 " fill-opacity="1" fill-rule="nonzero"/></g><path fill="#000000" d="M 501.285156 269.335938 C 499.976562 275.855469 500.847656 283.15625 500.847656 289.851562 C 500.9375 296.894531 501.199219 303.761719 501.808594 310.71875 C 502.417969 317.414062 513.839844 318.371094 515.238281 311.675781 C 516.894531 304.109375 517.679688 297.070312 517.503906 289.417969 C 517.242188 281.941406 516.980469 273.855469 514.101562 266.898438 C 512.96875 264.203125 509.480469 262.726562 506.777344 263.246094 C 503.640625 263.855469 501.894531 266.378906 501.285156 269.335938 Z M 501.285156 269.335938 " fill-opacity="1" fill-rule="nonzero"/><path fill="#000000" d="M 596.070312 267.074219 C 593.453125 272.289062 594.5 280.027344 594.761719 285.765625 C 595.023438 292.460938 595.808594 298.632812 597.554688 305.066406 C 599.90625 313.847656 611.070312 312.542969 612.8125 304.199219 C 614.296875 297.242188 614.382812 290.894531 613.597656 283.851562 C 612.902344 277.507812 612.289062 269.941406 608.191406 264.726562 C 604.53125 260.117188 598.25 262.640625 596.070312 267.074219 Z M 596.070312 267.074219 " fill-opacity="1" fill-rule="nonzero"/><path fill="#000000" d="M 502.15625 269.335938 C 500.847656 275.855469 501.722656 283.15625 501.722656 289.851562 C 501.808594 296.894531 502.070312 303.761719 502.679688 310.71875 C 503.289062 317.414062 514.714844 318.371094 516.109375 311.675781 C 517.765625 304.109375 518.550781 297.070312 518.375 289.417969 C 518.113281 281.941406 517.851562 273.855469 514.976562 266.898438 C 513.839844 264.203125 510.355469 262.726562 507.652344 263.246094 C 504.511719 263.855469 502.765625 266.378906 502.15625 269.335938 Z M 502.15625 269.335938 " fill-opacity="1" fill-rule="nonzero"/><path fill="#000000" d="M 596.941406 267.074219 C 594.328125 272.289062 595.375 280.027344 595.636719 285.765625 C 595.898438 292.460938 596.679688 298.632812 598.425781 305.066406 C 600.78125 313.847656 611.941406 312.542969 613.683594 304.199219 C 615.167969 297.242188 615.253906 290.894531 614.46875 283.851562 C 613.773438 277.507812 613.164062 269.941406 609.0625 264.726562 C 605.402344 260.117188 599.121094 262.640625 596.941406 267.074219 Z M 596.941406 267.074219 " fill-opacity="1" fill-rule="nonzero"/><path fill="#000000" d="M 578.457031 253.945312 C 582.902344 255.769531 587.351562 251.859375 590.925781 249.597656 C 595.722656 246.46875 600.34375 243.164062 604.964844 239.773438 C 614.035156 232.992188 622.753906 225.777344 630.777344 217.863281 C 634.265625 214.386719 630.253906 207.167969 625.632812 210.210938 C 616.128906 216.558594 606.972656 223.429688 597.902344 230.46875 C 593.542969 233.859375 589.269531 237.253906 585.082031 240.816406 C 581.507812 243.859375 576.449219 246.902344 576.886719 252.121094 C 576.972656 252.988281 577.757812 253.683594 578.457031 253.945312 Z M 578.457031 253.945312 " fill-opacity="1" fill-rule="nonzero"/><path fill="#000000" d="M 475.300781 223.082031 C 478.089844 225.601562 481.578125 226.820312 484.980469 228.382812 C 489.078125 230.296875 493.175781 232.296875 497.273438 234.210938 C 505.296875 238.121094 513.058594 242.382812 520.730469 246.902344 C 526.3125 250.121094 531.980469 241.773438 526.398438 238.554688 C 518.636719 234.121094 510.703125 230.210938 502.503906 226.644531 C 498.582031 224.992188 494.65625 223.429688 490.648438 222.035156 C 486.546875 220.644531 482.015625 218.386719 477.652344 218.644531 C 475.472656 218.644531 473.292969 221.253906 475.300781 223.082031 Z M 475.300781 223.082031 " fill-opacity="1" fill-rule="nonzero"/><path fill="#000000" d="M 483.671875 416.09375 C 495.441406 406.878906 506.34375 396.53125 519.074219 388.53125 C 531.367188 380.796875 544.886719 374.535156 559.1875 371.664062 C 584.472656 366.710938 612.550781 372.015625 631.125 390.792969 C 635.660156 395.402344 642.898438 389.226562 638.800781 384.097656 C 624.238281 366.015625 601.042969 357.929688 578.28125 358.015625 C 553.519531 358.191406 530.671875 368.363281 510.878906 382.621094 C 499.191406 391.054688 488.207031 400.792969 479.484375 412.355469 C 477.480469 415.050781 481.230469 417.917969 483.671875 416.09375 Z M 483.671875 416.09375 " fill-opacity="1" fill-rule="nonzero"/></svg>