<svg xmlns="http://www.w3.org/2000/svg" xmlns:xlink="http://www.w3.org/1999/xlink" width="1024" zoomAndPan="magnify" viewBox="0 0 768 767.999994" height="1024" preserveAspectRatio="xMidYMid meet" version="1.0"><defs><clipPath id="id1"><path d="M 18.871094 134.648438 L 686 134.648438 L 686 678.238281 L 18.871094 678.238281 Z M 18.871094 134.648438 " clip-rule="nonzero"/></clipPath><clipPath id="id2"><path d="M 623 111 L 736 111 L 736 237 L 623 237 Z M 623 111 " clip-rule="nonzero"/></clipPath><clipPath id="id3"><path d="M 641.867188 90.195312 L 748.679688 129.390625 L 686.617188 298.503906 L 579.808594 259.308594 Z M 641.867188 90.195312 " clip-rule="nonzero"/></clipPath><clipPath id="id4"><path d="M 641.867188 90.195312 L 748.679688 129.390625 L 686.617188 298.503906 L 579.808594 259.308594 Z M 641.867188 90.195312 " clip-rule="nonzero"/></clipPath><clipPath id="id5"><path d="M 624 238 L 665 238 L 665 282 L 624 282 Z M 624 238 " clip-rule="nonzero"/></clipPath><clipPath id="id6"><path d="M 641.867188 90.195312 L 748.679688 129.390625 L 686.617188 298.503906 L 579.808594 259.308594 Z M 641.867188 90.195312 " clip-rule="nonzero"/></clipPath><clipPath id="id7"><path d="M 641.867188 90.195312 L 748.679688 129.390625 L 686.617188 298.503906 L 579.808594 259.308594 Z M 641.867188 90.195312 " clip-rule="nonzero"/></clipPath></defs><path fill="#0e67ff" d="M 400.539062 270.402344 L 405.90625 318.0625 L 411.277344 365.726562 L 400.539062 270.402344 " fill-opacity="1" fill-rule="nonzero"/><g clip-path="url(#id1)"><path fill="#0e67ff" d="M 270.117188 678.238281 L 273.039062 671.6875 C 287.769531 642.515625 288.941406 622.125 276.550781 610.511719 C 270.710938 605.554688 262.117188 601.417969 250.765625 598.101562 C 179.949219 582.5 133.789062 568.953125 112.28125 557.457031 C 75.234375 538.429688 51.207031 518.074219 40.195312 496.386719 C 26.136719 476.960938 19.042969 441.65625 18.914062 390.472656 C 19.695312 346.96875 29.511719 302.726562 48.367188 257.738281 C 60.964844 224.609375 93.136719 195.898438 144.882812 171.613281 C 201.90625 146.964844 266.710938 134.707031 339.296875 134.832031 C 504.167969 137.484375 611.152344 178.519531 660.253906 257.929688 C 681.414062 295.375 689.433594 341.515625 684.308594 396.347656 C 679.175781 452.046875 660.472656 499.261719 628.203125 537.996094 C 620.085938 546.855469 611.210938 554.699219 601.582031 561.523438 C 597.394531 565.902344 581.777344 574.355469 554.734375 586.878906 C 549.414062 589.730469 532.304688 595.425781 503.398438 603.972656 C 434.3125 620.78125 391.464844 632.378906 374.855469 638.765625 C 355.195312 644.796875 320.28125 657.957031 270.117188 678.238281 " fill-opacity="1" fill-rule="nonzero"/></g><path fill="#000000" d="M 386.410156 257.453125 C 384.65625 266.226562 385.824219 276.054688 385.941406 285.066406 C 386.058594 294.542969 386.410156 303.785156 387.226562 313.144531 C 388.046875 322.152344 403.363281 323.441406 405.234375 314.429688 C 407.453125 304.253906 408.507812 294.773438 408.273438 284.480469 C 407.921875 274.417969 407.570312 263.535156 403.714844 254.175781 C 402.191406 250.550781 397.515625 248.5625 393.890625 249.261719 C 389.566406 250.082031 387.226562 253.476562 386.410156 257.453125 Z M 386.410156 257.453125 " fill-opacity="1" fill-rule="nonzero"/><path fill="#000000" d="M 513.496094 254.410156 C 509.988281 261.429688 511.394531 271.84375 511.742188 279.566406 C 512.09375 288.574219 513.148438 296.882812 515.484375 305.539062 C 518.640625 317.355469 533.605469 315.601562 535.945312 304.371094 C 537.933594 295.007812 538.050781 286.46875 536.996094 276.992188 C 536.0625 268.449219 535.242188 258.273438 529.75 251.253906 C 524.839844 245.050781 516.421875 248.445312 513.496094 254.410156 Z M 513.496094 254.410156 " fill-opacity="1" fill-rule="nonzero"/><path fill="#000000" d="M 403.011719 493.671875 C 428.03125 468.402344 454.453125 445.9375 486.140625 429.558594 C 517.472656 413.410156 551.847656 404.167969 586.921875 400.894531 C 596.15625 400.074219 595.339844 384.042969 585.984375 384.394531 C 548.339844 385.800781 511.625 396.328125 478.421875 413.996094 C 446.035156 431.195312 415.171875 455.882812 395.527344 487.121094 C 392.605469 491.683594 398.800781 497.882812 403.011719 493.671875 Z M 403.011719 493.671875 " fill-opacity="1" fill-rule="nonzero"/><g clip-path="url(#id2)"><g clip-path="url(#id3)"><g clip-path="url(#id4)"><path fill="#000000" d="M 730.050781 132.691406 C 733.40625 138.046875 735.335938 143.652344 735.363281 149.898438 C 735.375 152.691406 736.089844 155.492188 735.976562 158.269531 C 735.726562 164.636719 732.9375 170.03125 728.667969 174.621094 C 720.421875 183.476562 710.253906 189.453125 699.121094 193.910156 C 694.367188 195.8125 689.53125 197.515625 684.773438 199.410156 C 677.167969 202.4375 673.335938 208.253906 672.363281 216.238281 C 671.84375 220.472656 671.175781 224.699219 670.371094 228.890625 C 669.167969 235.125 664.664062 237.585938 658.644531 235.6875 C 652.867188 233.863281 649.273438 229.644531 646.371094 224.742188 C 641.410156 216.359375 641.496094 207.753906 645.472656 198.96875 C 649.839844 189.328125 657.773438 183.121094 666.046875 177.246094 C 674.855469 170.992188 683.925781 165.101562 692.570312 158.632812 C 697.664062 154.824219 702.164062 150.222656 706.890625 145.929688 C 707.761719 145.136719 708.484375 144.160156 709.199219 143.210938 C 711.683594 139.914062 711.269531 136.636719 708.074219 133.960938 C 705.246094 131.59375 701.824219 130.375 698.339844 129.675781 C 686.972656 127.40625 676.835938 130.675781 667.527344 137.082031 C 666.867188 137.539062 666.128906 138.433594 666.089844 139.160156 C 665.632812 147.398438 662.238281 154.574219 658.285156 161.578125 C 657.257812 163.398438 656.429688 165.332031 655.546875 167.226562 C 654.578125 169.320312 653.8125 171.523438 652.660156 173.511719 C 651.105469 176.183594 648.632812 177.539062 645.484375 177.546875 C 643.8125 177.554688 642.082031 177.84375 640.484375 177.503906 C 638.835938 177.152344 636.964844 176.546875 635.820312 175.417969 C 633.382812 173.019531 631.074219 170.394531 629.210938 167.535156 C 622.273438 156.910156 621.542969 145.566406 626.449219 134.03125 C 627.691406 131.125 630.109375 128.542969 632.46875 126.328125 C 638.191406 120.960938 645.191406 117.761719 652.679688 115.582031 C 667.535156 111.253906 682.628906 110.246094 697.859375 112.859375 C 708.332031 114.652344 718.042969 118.339844 725.402344 126.515625 C 727.089844 128.394531 728.464844 130.539062 730.050781 132.691406 Z M 663.46875 191.355469 C 662.160156 192.515625 660.84375 193.667969 659.558594 194.851562 C 659.375 195.015625 659.324219 195.316406 659.210938 195.554688 C 659.390625 195.507812 659.632812 195.523438 659.746094 195.40625 C 661.082031 194.035156 662.402344 192.644531 663.863281 191.195312 C 663.902344 191.113281 663.9375 191.03125 663.972656 190.945312 C 663.898438 191.058594 663.820312 191.171875 663.46875 191.355469 Z M 719.355469 153.332031 C 716.386719 157.304688 713.414062 161.273438 710.457031 165.253906 C 710.222656 165.566406 710.085938 165.957031 709.90625 166.308594 C 710.332031 166.195312 710.800781 166.160156 711.175781 165.949219 C 712.15625 165.398438 713.109375 164.800781 714.03125 164.164062 C 720.347656 159.816406 726.148438 155.054688 728.429688 147.234375 C 729.050781 145.101562 729.03125 143.140625 727.660156 141.460938 C 725.761719 139.132812 723.648438 136.976562 721.613281 134.761719 C 721.445312 134.578125 721.148438 134.511719 720.910156 134.394531 C 720.929688 134.644531 720.910156 134.90625 720.980469 135.140625 C 721.28125 136.144531 721.652344 137.132812 721.917969 138.148438 C 723.292969 143.4375 721.625 148.25 719.355469 153.332031 Z M 653.488281 224.140625 C 652.183594 222.695312 650.878906 221.246094 649.5625 219.808594 C 649.339844 219.566406 649.082031 219.355469 648.839844 219.136719 C 648.757812 219.441406 648.589844 219.75 648.605469 220.050781 C 648.792969 223.230469 649.949219 225.835938 652.851562 227.542969 C 657.164062 230.078125 661.574219 229.195312 663.703125 225.164062 C 664.253906 224.128906 664.652344 222.953125 664.8125 221.800781 C 665.546875 216.476562 666.164062 211.140625 666.828125 205.808594 C 666.851562 205.613281 666.886719 205.414062 666.917969 205.21875 C 666.816406 205.398438 666.679688 205.566406 666.617188 205.765625 C 665.914062 207.886719 665.355469 210.066406 664.507812 212.128906 C 663.109375 215.535156 661.773438 219.007812 659.9375 222.179688 C 658.699219 224.320312 656.449219 225.40625 653.488281 224.140625 Z M 714.234375 130.867188 C 712.414062 130.183594 710.589844 129.496094 708.765625 128.828125 C 708.597656 128.765625 708.394531 128.796875 708.207031 128.78125 C 708.28125 128.957031 708.328125 129.15625 708.429688 129.3125 C 710.796875 132.757812 713.160156 136.207031 715.554688 139.628906 C 715.644531 139.761719 716.230469 139.769531 716.289062 139.667969 C 717.554688 137.414062 716.585938 132.742188 714.234375 130.867188 Z M 716.136719 124.832031 C 715.964844 124.882812 715.792969 124.929688 715.621094 124.976562 C 715.679688 125.019531 715.738281 125.054688 715.789062 125.097656 C 717.617188 126.628906 719.523438 128.074219 721.246094 129.710938 C 723.21875 131.597656 725.019531 133.664062 726.921875 135.632812 C 727.128906 135.851562 727.480469 135.9375 727.769531 136.085938 C 727.761719 135.765625 727.867188 135.378906 727.722656 135.140625 C 726.902344 133.761719 726.289062 132.09375 725.113281 131.132812 C 722.367188 128.882812 719.339844 126.980469 716.136719 124.832031 Z M 640.214844 154.300781 C 640.859375 152.308594 641.503906 150.324219 642.144531 148.332031 C 642.222656 148.09375 642.265625 147.84375 642.324219 147.597656 C 642.15625 147.800781 641.929688 147.96875 641.824219 148.199219 C 640.308594 151.558594 638.773438 154.90625 637.34375 158.296875 C 637.140625 158.773438 637.386719 159.960938 637.5625 159.992188 C 638.5625 160.160156 639.234375 159.765625 639.359375 158.554688 C 639.5 157.25 639.878906 155.96875 640.214844 154.300781 Z M 638.316406 169.613281 C 638.867188 169.617188 639.46875 169.769531 639.957031 169.59375 C 640.492188 169.410156 640.917969 168.917969 641.390625 168.5625 C 640.898438 168.160156 640.457031 167.65625 639.898438 167.371094 C 639.1875 167.003906 638.390625 166.753906 637.609375 166.554688 C 637.097656 166.429688 636.542969 166.480469 636.003906 166.453125 C 636.015625 167.257812 635.792969 168.179688 636.121094 168.828125 C 636.347656 169.289062 637.332031 169.359375 638.316406 169.613281 Z M 630 160.101562 C 630.023438 158.199219 630.0625 156.292969 630.050781 154.386719 C 630.050781 154.078125 629.828125 153.773438 629.703125 153.46875 C 629.582031 153.761719 629.339844 154.070312 629.359375 154.355469 C 629.488281 156.214844 629.667969 158.0625 630 160.101562 Z M 652.171875 132.050781 C 652.148438 131.785156 652.125 131.523438 652.105469 131.257812 C 651.792969 131.605469 651.476562 131.957031 651.164062 132.308594 C 651.464844 132.300781 651.761719 132.292969 652.171875 132.050781 Z M 652.171875 132.050781 " fill-opacity="1" fill-rule="nonzero"/></g></g></g><g clip-path="url(#id5)"><g clip-path="url(#id6)"><g clip-path="url(#id7)"><path fill="#000000" d="M 633.191406 275.019531 C 628.363281 269.601562 624.660156 263.824219 624.433594 256.433594 C 624.066406 244.738281 634.589844 236.269531 646.011719 239.03125 C 656.1875 241.496094 662.390625 248.296875 664.105469 258.140625 C 665.285156 264.894531 664.429688 272.101562 658.457031 277.25 C 652.679688 282.226562 643.261719 282.527344 636.726562 277.917969 C 635.527344 277.070312 634.441406 276.066406 633.191406 275.019531 Z M 658.742188 252.753906 L 658.800781 252.8125 C 658.800781 252.8125 658.710938 252.675781 658.742188 252.386719 C 657.742188 251.230469 656.757812 250.066406 655.734375 248.929688 C 655.625 248.808594 655.28125 248.890625 655.046875 248.878906 C 655.128906 249.054688 655.171875 249.273438 655.304688 249.402344 C 656.4375 250.503906 657.589844 251.582031 658.742188 252.753906 Z M 637.65625 262.539062 C 637.03125 262.25 637.007812 260.261719 635.863281 261.640625 C 633.542969 264.445312 635.175781 268.75 638.71875 269.453125 C 639.875 269.683594 641.066406 269.746094 642.246094 269.835938 C 642.566406 269.859375 642.898438 269.710938 643.226562 269.640625 C 643.03125 269.367188 642.855469 269.082031 642.648438 268.820312 C 641.046875 266.808594 639.433594 264.804688 637.65625 262.539062 Z M 655.070312 260.570312 C 655.183594 261.496094 655.289062 262.417969 655.402344 263.34375 C 656.046875 262.539062 656.792969 261.792969 657.316406 260.914062 C 657.652344 260.347656 657.800781 259.59375 657.816406 258.921875 C 657.863281 256.503906 655.046875 253.695312 652.527344 253.566406 C 652.386719 253.558594 652.25 253.558594 652.113281 253.550781 C 652.296875 253.714844 652.480469 253.875 652.65625 254.039062 C 653.839844 255.152344 655.136719 256.171875 656.164062 257.414062 C 656.976562 258.394531 657.515625 259.671875 655.261719 259.601562 C 655.199219 259.597656 655.117188 260.042969 655.070312 260.570312 Z M 655.070312 260.570312 " fill-opacity="1" fill-rule="nonzero"/></g></g></g></svg>