<svg xmlns="http://www.w3.org/2000/svg" xmlns:xlink="http://www.w3.org/1999/xlink" width="1024" zoomAndPan="magnify" viewBox="0 0 768 767.999994" height="1024" preserveAspectRatio="xMidYMid meet" version="1.0"><defs><clipPath id="id1"><path d="M 13.71875 82.382812 L 762 82.382812 L 762 691.382812 L 13.71875 691.382812 Z M 13.71875 82.382812 " clip-rule="nonzero"/></clipPath></defs><path fill="#85e65c" d="M 441.496094 234.472656 L 447.511719 287.867188 L 453.53125 341.265625 L 441.496094 234.472656 " fill-opacity="1" fill-rule="nonzero"/><g clip-path="url(#id1)"><path fill="#85e65c" d="M 295.316406 691.382812 L 298.59375 684.042969 C 315.101562 651.363281 316.417969 628.515625 302.53125 615.507812 C 295.984375 609.949219 286.347656 605.316406 273.625 601.601562 C 194.253906 584.125 142.515625 568.945312 118.414062 556.070312 C 76.890625 534.75 49.957031 511.945312 37.617188 487.652344 C 21.859375 465.886719 13.910156 426.332031 13.765625 368.988281 C 14.640625 320.253906 25.644531 270.683594 46.773438 220.285156 C 60.894531 183.167969 96.953125 151.003906 154.953125 123.792969 C 218.867188 96.183594 291.5 82.449219 372.855469 82.589844 C 557.644531 85.5625 677.554688 131.53125 732.589844 220.496094 C 756.308594 262.449219 765.296875 314.140625 759.550781 375.574219 C 753.796875 437.972656 732.835938 490.867188 696.667969 534.261719 C 687.566406 544.191406 677.621094 552.976562 666.828125 560.621094 C 662.132812 565.53125 644.632812 575 614.324219 589.027344 C 608.359375 592.222656 589.179688 598.605469 556.785156 608.179688 C 479.347656 627.011719 431.324219 640.003906 412.710938 647.160156 C 390.675781 653.917969 351.542969 668.660156 295.316406 691.382812 " fill-opacity="1" fill-rule="nonzero"/></g><path fill="#000000" d="M 491.632812 217.371094 C 481.710938 232.429688 472.035156 247.65625 462.523438 262.960938 C 453.011719 278.269531 442.925781 293.578125 435.382812 310.027344 C 432.183594 317.070312 442.761719 321.488281 447.023438 315.839844 C 457.683594 301.679688 466.128906 285.71875 474.984375 270.410156 C 483.839844 254.941406 492.53125 239.386719 500.980469 223.671875 C 504.339844 217.371094 495.648438 211.148438 491.632812 217.371094 Z M 491.632812 217.371094 " fill-opacity="1" fill-rule="nonzero"/><path fill="#000000" d="M 437.347656 224.574219 C 445.386719 237.34375 453.914062 249.867188 462.769531 262.144531 C 471.625 274.503906 480.398438 287.109375 491.058594 297.996094 C 496.878906 303.972656 505.652344 296.113281 500.734375 289.484375 C 491.796875 277.53125 481.546875 266.5625 472.035156 255.023438 C 462.523438 243.5625 453.339844 231.777344 444.238281 219.988281 C 441.367188 216.304688 434.808594 220.5625 437.347656 224.574219 Z M 437.347656 224.574219 " fill-opacity="1" fill-rule="nonzero"/><path fill="#000000" d="M 618.152344 206.890625 C 608.3125 217.695312 600.113281 230.21875 592.40625 242.582031 C 584.699219 254.941406 576.742188 267.792969 571.332031 281.378906 C 569.117188 286.863281 577.5625 291.121094 580.597656 286.046875 C 587.894531 273.847656 594.210938 260.996094 601.671875 248.882812 C 609.214844 236.769531 617.660156 225.226562 625.203125 213.113281 C 627.828125 208.773438 621.925781 202.800781 618.152344 206.890625 Z M 618.152344 206.890625 " fill-opacity="1" fill-rule="nonzero"/><path fill="#000000" d="M 572.316406 212.949219 C 574.859375 218.84375 580.679688 224.246094 584.863281 229.074219 C 589.617188 234.558594 594.375 240.125 599.128906 245.609375 C 608.476562 256.25 617.90625 266.808594 628.730469 276.058594 C 632.910156 279.660156 637.257812 273.195312 634.550781 269.429688 C 626.515625 257.886719 616.921875 247.574219 607.328125 237.34375 C 602.492188 232.265625 597.652344 227.191406 592.816406 222.117188 C 590.601562 219.742188 588.304688 217.449219 586.007812 215.160156 C 583.46875 212.703125 581.007812 209.675781 577.972656 208.039062 C 574.613281 206.15625 570.757812 209.265625 572.316406 212.949219 Z M 572.316406 212.949219 " fill-opacity="1" fill-rule="nonzero"/><path fill="#000000" d="M 441.121094 412.265625 C 486.628906 379.113281 544.109375 362.417969 600.277344 365.527344 C 616.101562 366.425781 631.683594 368.964844 647.015625 372.8125 C 653.65625 374.449219 657.347656 364.542969 650.621094 362.660156 C 594.128906 346.945312 530.578125 353.902344 478.183594 379.851562 C 463.34375 387.21875 449.238281 396.386719 436.285156 406.699219 C 432.59375 409.808594 437.347656 415.050781 441.121094 412.265625 Z M 441.121094 412.265625 " fill-opacity="1" fill-rule="nonzero"/><path fill="#000000" d="M 575.1875 357.015625 C 570.59375 364.789062 571.332031 376.578125 573.710938 384.925781 C 576.25 393.519531 581.007812 402.035156 589.207031 406.453125 C 597.40625 410.875 606.835938 409.402344 613.640625 403.097656 C 620.777344 396.632812 624.136719 386.398438 625.039062 377.070312 C 625.613281 370.847656 616.511719 369.046875 614.460938 374.859375 C 612.25 380.914062 611.429688 387.792969 606.917969 392.703125 C 603.3125 396.632812 598.144531 398.023438 593.554688 394.914062 C 588.550781 391.558594 585.761719 385.746094 584.125 380.097656 C 583.222656 376.988281 582.566406 373.792969 582.402344 370.601562 C 582.15625 366.917969 583.058594 363.234375 582.8125 359.550781 C 582.566406 356.03125 577.480469 353.085938 575.1875 357.015625 Z M 575.1875 357.015625 " fill-opacity="1" fill-rule="nonzero"/></svg>