<svg xmlns="http://www.w3.org/2000/svg" xmlns:xlink="http://www.w3.org/1999/xlink" width="1015" zoomAndPan="magnify" viewBox="0 0 761.25 614.249986" height="819" preserveAspectRatio="xMidYMid meet" version="1.0"><defs><clipPath id="2f0396706d"><path d="M 0.0898438 0 L 754 0 L 754 613.5 L 0.0898438 613.5 Z M 0.0898438 0 " clip-rule="nonzero"/></clipPath></defs><path fill="#ffd115" d="M 431.179688 153.332031 L 437.242188 207.167969 L 443.308594 261.003906 L 431.179688 153.332031 " fill-opacity="1" fill-rule="nonzero"/><g clip-path="url(#2f0396706d)"><path fill="#ffd115" d="M 283.867188 613.984375 L 287.167969 606.585938 C 303.808594 573.636719 305.132812 550.601562 291.136719 537.488281 C 284.539062 531.886719 274.832031 527.210938 262.011719 523.46875 C 182.023438 505.847656 129.886719 490.542969 105.597656 477.5625 C 63.75 456.070312 36.609375 433.078125 24.175781 408.585938 C 8.296875 386.640625 0.28125 346.765625 0.136719 288.953125 C 1.019531 239.816406 12.109375 189.84375 33.402344 139.03125 C 47.632812 101.609375 83.96875 69.183594 142.417969 41.75 C 206.824219 13.914062 280.023438 0.0664062 362.007812 0.207031 C 548.226562 3.207031 669.066406 49.550781 724.523438 139.246094 C 748.429688 181.542969 757.484375 233.65625 751.695312 295.589844 C 745.898438 358.5 724.773438 411.828125 688.328125 455.578125 C 679.15625 465.585938 669.132812 474.445312 658.253906 482.152344 C 653.523438 487.101562 635.886719 496.648438 605.34375 510.792969 C 599.332031 514.011719 580.007812 520.449219 547.359375 530.101562 C 469.324219 549.085938 420.929688 562.183594 402.171875 569.398438 C 379.964844 576.210938 340.53125 591.074219 283.867188 613.984375 " fill-opacity="1" fill-rule="nonzero"/></g><path fill="#000000" d="M 432.710938 149.550781 C 431.460938 156.300781 432.265625 163.855469 432.355469 170.785156 C 432.441406 178.070312 432.710938 185.179688 433.335938 192.375 C 433.964844 199.304688 445.683594 200.292969 447.113281 193.367188 C 448.8125 185.539062 449.617188 178.25 449.4375 170.335938 C 449.171875 162.597656 448.902344 154.230469 445.949219 147.03125 C 444.789062 144.242188 441.210938 142.714844 438.4375 143.253906 C 435.125 143.882812 433.335938 146.492188 432.710938 149.550781 Z M 432.710938 149.550781 " fill-opacity="1" fill-rule="nonzero"/><path fill="#000000" d="M 529.945312 147.214844 C 527.261719 152.609375 528.332031 160.617188 528.601562 166.554688 C 528.871094 173.484375 529.675781 179.871094 531.464844 186.527344 C 533.878906 195.613281 545.328125 194.265625 547.117188 185.628906 C 548.640625 178.429688 548.730469 171.863281 547.921875 164.578125 C 547.207031 158.007812 546.582031 150.183594 542.378906 144.785156 C 538.621094 140.015625 532.179688 142.625 529.945312 147.214844 Z M 529.945312 147.214844 " fill-opacity="1" fill-rule="nonzero"/><path fill="#000000" d="M 365.265625 261.378906 C 364.996094 274.964844 371.796875 287.738281 379.308594 298.625 C 386.734375 309.332031 396.214844 318.6875 406.859375 326.15625 C 427.164062 340.371094 452.03125 348.46875 476.722656 349.546875 C 501.765625 350.625 527.4375 345.40625 549.445312 333.171875 C 571.359375 321.027344 589.875 303.125 603.382812 281.890625 C 610.808594 270.195312 616.800781 257.421875 621.003906 244.195312 C 623.242188 237.359375 625.03125 230.25 626.191406 223.144531 C 627.265625 216.125 628.695312 208.121094 626.460938 201.28125 C 624.3125 194.804688 616.441406 193.90625 613.402344 200.292969 C 610.984375 205.421875 610.71875 211.089844 609.554688 216.667969 C 608.390625 222.15625 607.140625 227.640625 605.53125 233.039062 C 602.488281 243.386719 598.375 253.460938 593.097656 262.820312 C 582.453125 281.800781 567.78125 298.804688 549.535156 310.859375 C 513.394531 334.613281 464.554688 337.851562 425.914062 317.878906 C 414.644531 312.03125 404.175781 304.203125 395.589844 294.9375 C 385.839844 284.410156 380.292969 272.175781 373.585938 259.671875 C 371.617188 256.160156 365.355469 256.792969 365.265625 261.378906 Z M 365.265625 261.378906 " fill-opacity="1" fill-rule="nonzero"/></svg>